<svg width="61" height="61" viewBox="0 0 61 61" fill="none" xmlns="http://www.w3.org/2000/svg">
<path d="M50.1886 17.6055C52.3622 14.2521 51.4927 10.0603 50.1886 7.54523C44.9721 7.54523 41.0599 10.8987 39.7559 12.5754H30.6468C29.3427 10.8987 25.4303 7.54523 20.2139 7.54523C18.9098 10.0603 18.0404 14.2521 20.2139 17.6055C18.5581 19.495 17.6056 22.5751 17.6056 25.1507C17.6056 37.454 25.4298 37.7203 35.2111 37.7258M35.2111 37.7258C35.4274 37.7261 35.645 37.7261 35.8633 37.7261M35.2111 37.7258C34.9946 37.7261 34.7773 37.7261 34.559 37.7261M35.2111 37.7258C44.9925 37.7203 52.8166 37.454 52.8166 25.1507C52.8166 22.5751 51.8642 19.495 50.2083 17.6055M35.2111 37.7258C40.7672 37.7258 45.2714 42.2303 45.2714 47.7864V52.8165M35.2111 37.7258C29.6551 37.7258 25.1509 42.2303 25.1509 47.7864M25.1509 47.7864V52.8165M25.1509 47.7864H21.3782C17.9057 47.7864 15.0906 44.9713 15.0906 41.4987C15.0906 38.0261 12.2755 35.211 8.80289 35.211H7.54535" stroke="#BCB3F3" stroke-width="4.19045" stroke-linecap="round" stroke-linejoin="round"/>
</svg>
