<svg width="52" height="53" viewBox="0 0 52 53" fill="none" xmlns="http://www.w3.org/2000/svg">
<path d="M6.49988 15.4584C6.49988 10.5798 10.3801 6.62503 15.1665 6.62503H36.8332C41.6196 6.62503 45.4999 10.5798 45.4999 15.4584V37.5417C45.4999 42.4201 41.6196 46.375 36.8332 46.375H15.1665C10.3801 46.375 6.49988 42.4201 6.49988 37.5417V15.4584Z" stroke="#BCB3F3" stroke-width="4.19045" stroke-linecap="round" stroke-linejoin="round"/>
<path d="M32.5001 26.5C32.5001 30.159 29.59 33.125 26.0001 33.125C22.4101 33.125 19.5001 30.159 19.5001 26.5C19.5001 22.841 22.4101 19.875 26.0001 19.875C29.59 19.875 32.5001 22.841 32.5001 26.5ZM39.0001 15.4584C39.0001 16.678 38.03 17.6667 36.8334 17.6667C35.6367 17.6667 34.6667 16.678 34.6667 15.4584C34.6667 14.2387 35.6367 13.25 36.8334 13.25C38.03 13.25 39.0001 14.2387 39.0001 15.4584Z" stroke="#BCB3F3" stroke-width="4.19045" stroke-linecap="round" stroke-linejoin="round"/>
</svg>
