<svg width="576" height="450" viewBox="0 0 576 450" fill="none" xmlns="http://www.w3.org/2000/svg">
<path d="M93.2728 159.382C85.3932 157.445 78.8521 156.371 73.6492 156.159C68.3892 155.806 62.8484 156.803 57.0269 159.151C45.384 163.846 36.5757 170.863 30.6021 180.202C26.1012 187.461 23.8055 195.482 23.715 204.262C23.6244 213.043 25.4677 222.116 29.2448 231.482C32.8503 240.422 38.0853 247.468 44.95 252.619C51.7574 257.628 59.1422 260.589 67.1043 261.502C75.0665 262.416 82.5972 261.441 89.6966 258.578C96.796 255.715 102.472 252.188 106.725 247.998C111.063 243.609 114.079 239.011 115.772 234.203C118.138 226.155 117.29 217.093 113.227 207.017C112.654 205.598 111.118 205.063 108.617 205.412C106.116 205.76 102.736 206.793 98.4767 208.511L83.2279 214.908C79.1103 216.569 75.5298 217.106 72.4865 216.518C69.4432 215.931 67.4351 214.431 66.4622 212.018C65.0887 208.612 65.2231 205.671 66.8653 203.194C68.4504 200.575 71.1597 198.492 74.9934 196.946C79.537 195.114 85.7569 192.935 93.6531 190.411C101.549 187.886 107.201 185.937 110.609 184.562C115.579 182.558 120.184 182.516 124.424 184.435C128.807 186.297 132.2 190.209 134.604 196.169C136.836 201.703 138.233 208.646 138.795 216.999C139.357 225.351 138.611 233.324 136.556 240.918C134.585 248.312 130.012 255.188 122.837 261.546C115.746 267.706 104.775 270.142 96.4796 274.928C88.1023 278.306 80.065 282.178 71.1683 282.631C62.2717 283.085 54.2237 281.958 47.0243 279.252C38.0321 275.784 29.9308 270.637 22.7206 263.811C15.5952 256.785 10.3442 249.086 6.96769 240.714C2.04596 228.51 0.107044 215.516 1.15095 201.731C2.27962 187.747 6.45485 175.586 13.6767 165.25C16.7917 160.694 21.8109 155.947 28.7342 151.01C35.6575 146.073 42.3139 142.316 48.7033 139.74C58.6424 135.731 68.0042 133.771 76.7886 133.858C85.5157 133.803 93.0117 135.812 99.2765 139.885C102.01 141.752 103.778 143.679 104.579 145.665C105.495 147.936 105.359 150.465 104.173 153.254C102.986 156.042 101.399 157.837 99.4112 158.639C98.5593 158.982 97.5082 159.241 96.2578 159.415C95.0075 159.59 94.0124 159.578 93.2728 159.382Z" fill="url(#paint0_linear_116_3)" fill-opacity="0.35"/>
<path d="M272.593 194.222C273.852 197.343 273.207 200.656 270.658 204.159C268.251 207.604 265.627 209.9 262.787 211.045C257.392 213.221 252.804 214.329 249.023 214.369C245.327 214.21 241.386 212.829 237.2 210.228C234.825 214.98 230.786 219.496 225.083 223.776C219.323 227.914 213.745 231.071 208.35 233.247C199.547 236.797 191.361 237.376 183.793 234.983C176.168 232.449 170.495 226.57 166.775 217.346C165.173 213.373 164.778 209.325 165.592 205.202C166.348 200.937 168.057 196.783 170.719 192.74C173.749 188.384 177.605 184.436 182.286 180.899C186.91 177.219 192.062 174.234 197.741 171.943C200.723 170.741 204.502 169.877 209.077 169.351C213.652 168.826 217.334 168.744 220.12 169.105L218.747 165.699C215.657 158.036 211.693 153.53 206.857 152.181C201.964 150.69 195.399 151.605 187.164 154.926C184.75 155.899 182.537 157.369 180.523 159.336C178.652 161.246 176.569 163.653 174.274 166.559C171.157 170.291 167.824 172.872 164.274 174.304C162.996 174.819 161.446 174.454 159.623 173.21C157.743 171.823 156.517 170.42 155.945 169.001C154.285 164.886 154.771 160.565 157.403 156.039C160.177 151.456 163.975 147.367 168.799 143.771C173.565 140.035 178.077 137.307 182.337 135.589C186.597 133.871 191.839 132.747 198.063 132.217C204.23 131.545 209.661 131.912 214.355 133.318C220.102 135.29 225.114 138.301 229.388 142.352C233.748 146.203 237.101 151.038 239.447 156.856C240.191 158.701 241.165 161.525 242.369 165.329C243.688 169.417 244.919 172.88 246.064 175.718C246.579 176.995 247.21 178.968 247.956 181.637C248.931 184.873 249.79 187.414 250.534 189.259C251.221 190.962 252.461 192.194 254.254 192.956C255.99 193.576 257.709 193.542 259.413 192.855L265.291 190.237C266.853 189.607 268.289 189.688 269.598 190.48C270.908 191.271 271.906 192.519 272.593 194.222ZM201.781 216.345C207.887 213.883 212.741 211.183 216.343 208.245C219.946 205.307 223.971 200.962 228.419 195.208C228.014 192.567 227.081 189.231 225.621 185.2C216.324 184.66 209.119 185.42 204.008 187.482C198.186 189.83 193.433 192.984 189.748 196.945C186.063 200.906 185.308 205.583 187.482 210.975C188.57 213.671 190.621 215.484 193.637 216.412C196.653 217.341 199.368 217.318 201.781 216.345Z" fill="url(#paint1_linear_116_3)" fill-opacity="0.35"/>
<path d="M372.15 166.94C367.322 168.887 363.344 169.666 360.216 169.278C357.031 168.748 353.118 167.026 348.476 164.113C346.101 168.866 341.622 173.725 335.04 178.689C328.6 183.596 322.753 187.109 317.499 189.228C308.838 192.721 300.865 193.214 293.581 190.707C286.382 188.001 280.922 182.036 277.203 172.812C275.6 168.838 275.206 164.79 276.019 160.668C276.917 156.346 278.626 152.192 281.146 148.206C284.034 143.906 287.861 139.888 292.627 136.151C297.535 132.357 302.261 129.544 306.805 127.711C314.472 124.619 321.574 122.58 328.109 121.594L328.024 121.381C324.933 113.718 320.899 109.241 315.921 107.949C311.027 106.458 304.463 107.373 296.227 110.694C290.974 112.813 287.375 116.986 285.43 123.215C284.754 125.633 282.144 127.758 277.6 129.59C275.328 130.506 273.253 130.271 271.373 128.884C269.578 127.299 268.28 125.512 267.478 123.526C265.819 119.41 266.092 115.176 268.298 110.821C270.645 106.41 274.018 102.492 278.415 99.069C282.755 95.5039 287.055 92.8624 291.315 91.1445C295.432 89.4839 300.674 88.3598 307.041 87.7721C313.407 87.1845 318.937 87.594 323.631 89.0005C329.379 90.9722 334.39 93.9833 338.665 98.0338C343.025 101.885 346.378 106.72 348.724 112.538C349.468 114.383 350.442 117.207 351.646 121.011C353.079 125.383 354.339 128.917 355.426 131.613C355.941 132.89 356.458 134.579 356.975 136.681C357.721 139.349 358.437 141.535 359.124 143.238C359.868 145.083 361.151 146.628 362.974 147.872C364.797 149.117 366.931 149.906 369.377 150.24C371.623 150.489 373.259 151.066 374.285 151.973C375.311 152.879 376.11 154.041 376.682 155.461C377.254 156.88 377.047 159.026 376.059 161.899C375.157 164.572 373.853 166.253 372.15 166.94ZM313.157 143.463C307.62 145.696 303.15 148.736 299.749 152.582C296.348 156.429 295.735 161.048 297.909 166.441C298.997 169.137 300.835 171.035 303.425 172.136C306.157 173.179 308.659 173.242 310.931 172.326C317.036 169.864 321.89 167.164 325.493 164.226C329.095 161.288 333.121 156.942 337.569 151.189C337.363 148.632 336.501 145.267 334.983 141.095C334.354 139.534 333.938 138.299 333.737 137.39C325.555 139.205 318.695 141.23 313.157 143.463Z" fill="url(#paint2_linear_116_3)" fill-opacity="0.35"/>
<path d="M385.36 116.076C382.155 108.13 379.794 102.07 378.276 97.8976L370.334 77.5902C367.014 69.3597 363.167 60.4346 358.792 50.8149C357.449 47.8921 355.292 43.9773 352.323 39.0703C347.982 31.5817 345.01 25.8508 343.408 21.8774C340.775 15.3497 342.725 10.7689 349.256 8.13481C353.374 6.4742 356.742 6.43557 359.362 8.0189C362.066 9.40307 364.718 12.2935 367.316 16.69C372.685 25.9089 378.03 37.1169 383.353 50.3141C384.955 54.2875 387.217 60.3048 390.138 68.366C391.118 63.0209 393.252 58.2832 396.539 54.1529C399.968 49.9654 403.812 47.0127 408.071 45.2948C420.424 40.313 433.134 41.1269 446.199 47.7365C450.044 50.3107 453.891 53.709 457.739 57.9313C461.673 61.9544 464.355 65.7398 465.786 69.2874C468.304 75.5312 469.912 81.5647 470.61 87.3879C471.449 93.1537 471.167 99.2072 469.762 105.548C468.357 111.889 465.658 117.68 461.663 122.921C457.811 128.104 452.477 132.07 445.661 134.819C439.698 137.224 433.816 138.193 428.016 137.728C422.357 137.205 417.307 135.53 412.865 132.702C413.585 136.536 413.454 140.713 412.471 145.234C411.431 149.613 409.349 152.433 406.225 153.693C403.669 154.723 401.282 154.944 399.063 154.354C396.787 153.622 395.105 151.908 394.018 149.211C393.217 147.225 392.641 144.57 392.291 141.246C391.484 136.787 390.606 132.769 389.658 129.192C388.796 125.415 387.363 121.043 385.36 116.076ZM433.212 119.299C440.169 116.493 445.018 111.733 447.758 105.018C450.44 98.1618 450.093 90.5474 446.717 82.175C443.626 74.5121 438.906 68.7438 432.557 64.8701C430.393 63.5979 427.733 62.9382 424.577 62.891C421.564 62.7864 418.779 63.2495 416.223 64.2803C410.26 66.6853 405.935 70.4919 403.248 75.7002C400.504 80.7665 400.078 86.4652 401.971 92.7961C404.722 101.256 407.3 108.466 409.704 114.426C412.724 117.002 416.453 118.881 420.89 120.061C425.413 121.041 429.52 120.787 433.212 119.299Z" fill="url(#paint3_linear_116_3)" fill-opacity="0.35"/>
<path d="M547.443 41.8005C548.865 42.0519 551.609 42.5125 555.676 43.1821C559.828 43.6526 562.987 44.9359 565.153 47.0321C567.319 49.1283 569.317 52.4469 571.149 56.9879C573.209 62.0965 573.549 67.2387 572.17 72.4146C570.734 77.4485 568.102 81.9746 564.275 85.9928C561.581 88.7289 558.375 91.012 554.656 92.8419C551.078 94.6145 546.663 96.5601 541.41 98.6788C538.57 99.8241 534.707 100.887 529.82 101.868C525.075 102.792 521.707 103.243 519.717 103.22C514.143 102.498 509.108 101.064 504.611 98.9183C500.113 96.7724 497.149 93.9256 495.719 90.3779C494.574 87.5398 494.581 84.8971 495.74 82.4498C496.899 80.0026 498.97 78.1777 501.952 76.9752C503.513 76.3453 505.176 76.1697 506.939 76.4485C508.787 76.5282 510.196 76.9502 511.164 77.7145C514.214 80.7741 517.957 82.4819 522.392 82.8379C526.828 83.1938 530.963 82.5988 534.796 81.0527C548.285 75.6127 554.057 70.4804 552.111 65.6556C551.596 64.3785 550.84 63.5282 549.844 63.105C548.933 62.4826 547.737 61.9748 546.258 61.5815C543.897 61.0487 540.727 60.76 536.747 60.7152C532.909 60.6132 529.569 60.7228 526.727 61.044C520.39 62.1146 513.938 62.4893 507.371 62.1683C501.229 61.6754 495.696 60.0299 490.77 57.2317C485.788 54.2915 482.066 49.7705 479.605 43.6686C478.117 39.979 478.006 35.8164 479.274 31.1808C480.625 26.346 482.775 22.2618 485.723 18.9282C487.878 16.9042 491.637 14.1506 497.001 10.6676C502.365 7.18464 506.111 5.01366 508.241 4.15473C511.507 2.83769 515.2 1.76093 519.319 0.92437C523.382 -0.0540905 526.693 -0.234647 529.253 0.382735C534.003 1.10714 538.099 2.25978 541.543 3.84062C544.93 5.27955 547.253 7.55995 548.512 10.6819C549.141 12.2428 549.473 14.0889 549.507 16.22C549.484 18.2091 549.061 19.617 548.239 20.4436C546.51 22.2959 544.225 23.7946 541.386 24.9398C540.108 25.4552 538.9 25.5299 537.762 25.1639C536.766 24.7407 535.314 24.0063 533.407 22.9607C530.872 21.1782 528.809 20.3604 527.217 20.5073C525.341 20.7688 522.656 21.2742 519.162 22.0236C515.61 22.6311 513.266 23.1639 512.13 23.622C508.58 25.0536 505.459 27.1374 502.766 29.8735C500.214 32.5523 499.425 35.0979 500.398 37.5103C501.542 40.3484 504.858 41.816 510.345 41.913C513.899 42.1296 517.651 42.0187 521.601 41.5805C525.694 41.085 528.223 40.8074 529.189 40.7476C531.349 40.3717 534.305 40.3343 538.058 40.6355C541.954 40.8794 545.082 41.2677 547.443 41.8005Z" fill="url(#paint4_linear_116_3)" fill-opacity="0.35"/>
<path d="M81.6629 449.043C81.3121 449.184 80.6275 449.257 79.6092 449.26C78.6615 449.438 78.0816 449.264 77.8695 448.738C77.7988 448.563 77.8158 448.352 77.9205 448.106C78.0252 447.86 78.0776 447.737 78.0776 447.737C79.164 446.892 79.6195 446.504 79.4441 446.575C79.5148 446.75 80.0933 446.415 81.1797 445.569C83.7372 443.315 85.6796 440.799 87.0067 438.022C88.4385 434.999 89.3781 431.767 89.8256 428.326C92.5549 411.328 94.8629 394.296 96.7493 377.231C98.565 359.991 100.416 342.838 102.302 325.773C102.923 321.243 103.42 316.66 103.794 312.026C104.168 307.391 104.542 302.756 104.916 298.122C104.945 295.665 104.973 293.207 105.002 290.75C105.206 288.222 105.533 285.747 105.983 283.323C106.397 280.303 107.741 277.315 110.015 274.36C112.395 271.158 114.811 268.554 117.264 266.545L110.95 269.092C107.442 270.507 102.724 272.715 96.7977 275.716C90.9756 278.472 84.9441 281.72 78.7032 285.459C72.4624 289.199 67.1352 293.182 62.7216 297.407C58.4835 301.562 56.1067 305.782 55.5912 310.066C55.1098 313.928 55.47 317.35 56.6718 320.33C58.0857 323.836 59.8294 325.884 61.9028 326.474C63.9762 327.065 65.0836 327.535 65.225 327.886C65.3664 328.236 65.2447 328.693 64.8599 329.256C64.4751 329.819 64.1073 330.171 63.7565 330.312C62.7041 330.737 60.9645 330.215 58.5376 328.749C56.1107 327.282 53.7008 325.604 51.3079 323.716C49.0197 321.582 47.5235 320.147 46.8192 319.412C45.5154 317.696 44.4746 315.874 43.697 313.945C41.7882 309.212 41.9175 304.982 44.0849 301.255C46.357 297.282 49.6488 293.814 53.9603 290.852C58.2719 287.891 62.7601 285.367 67.4251 283.282C72.1948 280.951 76.1582 279.149 79.3154 277.876C88.0852 274.339 96.7843 270.627 105.413 266.739C113.97 262.677 122.546 258.912 131.141 255.446C139.384 252.122 147.7 249.481 156.088 247.525C164.58 245.323 172.743 244.579 180.576 245.292C188.409 246.006 195.491 248.652 201.825 253.231C208.333 257.739 213.602 264.989 217.632 274.981C221.308 284.097 223.336 294.182 223.716 305.238C224.201 316.048 223.421 326.248 221.374 335.837C212.913 376.545 189.389 404.681 150.802 420.243C144.838 422.648 138.452 424.51 131.643 425.829C125.009 427.078 118.408 427.396 111.84 426.784C110.329 426.578 108.801 426.583 107.257 426.798C105.817 426.768 104.395 427.035 102.992 427.601C100.011 428.804 97.4177 430.97 95.2136 434.101C92.9388 437.056 90.7517 439.977 88.6523 442.861C86.6237 445.921 84.2939 447.982 81.6629 449.043ZM146.16 417.835C159.315 412.529 170.567 405.036 179.918 395.355C189.268 385.673 196.403 374.542 201.321 361.961C206.169 349.204 208.644 335.875 208.748 321.975C208.766 315.446 208.239 308.83 207.168 302.129C206.273 295.357 204.623 288.991 202.219 283.031C196.705 269.358 188.254 260.538 176.866 256.571C165.582 252.358 153.188 252.975 139.682 258.421C136.349 259.765 132.983 261.531 129.582 263.717C126.357 265.833 124.135 268.666 122.915 272.215C121.766 275.939 120.811 279.891 120.049 284.07C119.463 288.179 118.842 292.2 118.185 296.133C116.978 304.772 116.054 313.603 115.41 322.626C114.871 331.403 114.21 340.128 113.425 348.801C112.091 362.179 110.879 375.609 109.791 389.091C109.553 392.041 109.263 395.113 108.92 398.308C108.682 401.257 108.444 404.207 108.206 407.156C108.209 408.174 108.247 409.279 108.32 410.473C108.323 411.491 108.571 412.613 109.066 413.84C109.985 416.119 111.465 417.764 113.504 418.776C115.543 419.788 117.635 420.677 119.779 421.442C124.102 422.553 128.632 422.662 133.37 421.77C138.038 420.703 142.301 419.391 146.16 417.835Z" fill="url(#paint5_linear_116_3)" fill-opacity="0.35"/>
<path d="M266.498 371.138C259.307 374.038 253.742 374.651 249.805 372.978C245.867 371.305 243.086 368.453 241.46 364.421C239.409 359.338 238.533 353.373 238.831 346.527C239.305 339.611 239.956 333.642 240.786 328.619C241.895 323.281 243.899 317.377 246.797 310.91C249.694 304.442 253.313 298.499 257.653 293.08C261.993 287.661 266.794 283.891 272.056 281.769C276.617 279.93 280.233 279.796 282.906 281.367C285.509 282.764 287.411 284.952 288.613 287.932C290.804 293.366 290.94 298.508 289.022 303.358C287.279 308.137 284.499 312.621 280.682 316.809C276.795 320.823 272.941 324.415 269.122 327.586C266.774 329.348 263.987 331.287 260.762 333.403C257.537 335.519 254.346 337.213 251.189 338.487C251.233 342.137 251.506 345.594 252.006 348.857C252.506 352.12 253.251 354.978 254.241 357.432C255.443 360.412 257.134 362.584 259.315 363.946C261.671 365.238 264.603 365.176 268.111 363.761C269.514 363.195 271.11 362.348 272.898 361.219C274.686 360.091 276.579 358.716 278.576 357.095C283.131 353.22 287.174 348.329 290.705 342.421C294.236 336.513 297.223 330.519 299.665 324.439C302.212 318.113 304.025 313 305.103 309.101C305.841 309.414 306.352 309.922 306.634 310.623C306.988 311.499 306.94 313.149 306.489 315.573C304.961 321.896 302.451 328.818 298.959 336.341C295.467 343.863 291.043 350.844 285.688 357.284C280.261 363.549 273.864 368.167 266.498 371.138ZM251.173 332.379C253.523 331.635 256.067 330.609 258.802 329.302C261.643 327.749 264.289 325.968 266.742 323.96C273.085 318.956 276.916 313.539 278.235 307.708C279.659 301.631 279.628 296.752 278.144 293.071C277.295 290.967 276.15 289.391 274.707 288.342C273.265 287.294 271.579 287.158 269.65 287.937C264.563 289.988 260.78 293.755 258.302 299.239C255.752 304.547 253.976 310.256 252.974 316.367C251.972 322.478 251.371 327.815 251.173 332.379Z" fill="url(#paint6_linear_116_3)" fill-opacity="0.35"/>
<path d="M333.652 346.5C330.495 347.774 326.986 348.679 323.124 349.218C319.263 349.756 315.54 349.627 311.956 348.83C308.477 347.788 305.592 345.691 303.301 342.538C302.913 342.083 302.508 341.33 302.083 340.278C301.094 337.824 300.524 334.894 300.375 331.49C300.401 328.015 301.043 325.31 302.302 323.376C302.862 322.742 303.389 322.53 303.881 322.739C304.548 322.877 304.777 323.193 304.568 323.685C304.605 324.281 304.624 325.089 304.627 326.107C304.559 326.949 304.614 327.844 304.792 328.791C306.104 333.561 308.695 337.204 312.564 339.72C314.182 340.698 315.94 341.517 317.838 342.178C319.912 342.769 321.827 343.219 323.583 343.53C325.094 343.736 326.797 343.66 328.692 343.304C330.517 342.772 332.306 342.152 334.06 341.445C336.866 340.313 339.444 338.866 341.792 337.104C344.14 335.341 345.61 333.424 346.201 331.351C347.35 327.627 347.218 324.012 345.804 320.506C344.744 317.876 342.911 315.355 340.306 312.94C337.701 310.526 334.236 308.255 329.911 306.127C327.133 304.802 324.373 303.266 321.629 301.519C318.885 299.772 316.685 297.602 315.027 295.01C314.64 294.555 314.252 294.1 313.865 293.644C313.653 293.119 313.441 292.593 313.229 292.067C312.292 296.317 311.196 300.427 309.943 304.397C308.794 308.122 307.766 311.389 306.861 314.2C306.583 315.535 306.181 316.308 305.655 316.521C305.305 316.662 304.988 316.382 304.705 315.681C304.069 314.103 304.099 312.155 304.795 309.836C305.562 307.693 306.363 305.128 307.198 302.142C307.962 298.98 308.587 296.486 309.074 294.659C310.289 289.074 311.102 284.772 311.516 281.752C312.034 278.486 312.746 275.447 313.652 272.637C314.662 269.58 316.287 266.784 318.528 264.25C320.944 261.645 323.731 259.706 326.888 258.433C330.571 256.947 334.151 256.217 337.628 256.241C341.209 256.02 344.007 258.153 346.02 262.64C346.868 264.743 347.314 267.111 347.356 269.744C347.503 272.13 347.526 274.464 347.427 276.746C347.325 278.01 346.854 279.117 346.013 280.068C345.278 280.772 344.769 280.774 344.486 280.072C344.203 279.371 343.973 278.547 343.795 277.6C343.616 276.653 343.386 275.828 343.103 275.127C341.901 272.147 340.315 269.73 338.343 267.876C336.477 265.775 334.454 264.553 332.276 264.208C330.027 263.689 327.938 263.818 326.009 264.596C323.203 265.728 320.943 267.963 319.232 271.303C317.449 274.468 317.265 277.803 318.679 281.309C318.82 281.66 318.997 282.098 319.209 282.624C319.421 283.15 319.685 283.552 320.002 283.832C321.835 286.354 325.212 288.661 330.134 290.752C335.056 292.843 339.011 294.814 342.001 296.666C347.172 299.879 350.711 303.853 352.62 308.586C354.529 313.319 354.893 318.267 353.713 323.43C352.637 328.348 350.279 332.866 346.638 336.984C343.242 341.206 338.914 344.378 333.652 346.5Z" fill="url(#paint7_linear_116_3)" fill-opacity="0.35"/>
<path d="M391.534 201.485C389.078 202.475 387.006 202.394 385.317 201.241C384.262 200.647 383.452 199.649 382.887 198.247C381.755 195.442 382.152 192.633 384.076 189.819C385.581 187.989 387.123 186.756 388.701 186.119C391.332 185.058 393.492 185.104 395.181 186.257C396.236 186.851 397.046 187.849 397.612 189.251C398.743 192.056 398.259 194.901 396.159 197.785C395.005 199.474 393.463 200.707 391.534 201.485ZM386.582 321.18C384.828 321.887 383.196 322.138 381.685 321.932C380.35 321.655 379.293 320.553 378.516 318.625C377.526 316.17 376.974 313.031 376.858 309.205C376.918 305.308 377.066 301.376 377.301 297.409C377.712 293.371 377.931 290.124 377.96 287.666C378.198 284.717 378.417 280.961 378.615 276.397C378.919 271.587 379.153 267.111 379.317 262.968C379.587 258.579 379.789 255.543 379.925 253.857C378.53 257.477 376.892 262.01 375.01 267.457C373.232 272.657 371.595 277.699 370.098 282.583C368.601 287.467 367.487 291.279 366.757 294.019C366.514 294.932 366.217 295.46 365.866 295.601C365.515 295.742 365.163 295.375 364.809 294.498C364.244 293.096 364.152 291.605 364.534 290.024C366.17 284.473 367.945 278.254 369.858 271.369C371.947 264.412 373.773 258.071 375.339 252.344C376.833 246.443 377.736 242.614 378.047 240.858C379.835 239.729 382.43 238.071 385.83 235.885C389.406 233.627 391.648 231.602 392.557 229.809C392.871 229.071 393.291 228.596 393.817 228.384C394.168 228.242 394.485 228.522 394.767 229.223C395.155 229.678 395.227 230.363 394.983 231.276C394.426 232.928 393.786 236.65 393.064 242.444C392.342 248.238 391.656 254.629 391.007 261.616C390.463 268.358 389.883 274.502 389.265 280.05C388.718 285.773 388.452 291.18 388.465 296.27C388.478 301.359 388.874 304.868 389.652 306.797C390.641 309.251 392.364 309.983 394.82 308.992C397.1 308.073 399.428 305.503 401.805 301.284C404.357 296.994 406.697 292.178 408.825 286.836C410.883 281.318 412.643 276.329 414.106 271.866C414.559 270.461 415.116 268.809 415.779 266.912C416.545 264.768 417.034 263.45 417.243 262.958C417.735 263.167 418.158 263.71 418.512 264.587C418.831 265.885 418.887 267.288 418.681 268.798C418.403 270.133 418.09 271.38 417.742 272.54C415.897 278.583 413.772 284.943 411.366 291.619C408.89 298.121 405.693 304.098 401.774 309.55C397.785 314.828 392.721 318.704 386.582 321.18Z" fill="url(#paint8_linear_116_3)" fill-opacity="0.35"/>
<path d="M417.954 414.609C411.289 417.297 404.251 418.301 396.84 417.621C389.324 417.188 382.802 414.417 377.275 409.309C375.129 407.525 373.35 405.389 371.938 402.901C370.598 400.589 369.433 398.205 368.443 395.751L367.383 393.122C366.817 391.719 366.462 390.334 366.318 388.966C366.174 387.597 366.891 386.594 368.47 385.958C368.821 385.816 369.067 385.921 369.208 386.271C369.632 387.323 369.969 388.41 370.218 389.533C370.466 390.655 370.838 391.83 371.333 393.057C374.585 401.121 379.69 406.195 386.649 408.28C393.432 410.436 400.682 409.958 408.4 406.845C411.557 405.572 414.66 403.913 417.71 401.868C420.76 399.822 423.44 397.62 425.752 395.261C435.068 386.001 442.046 375.239 446.684 362.974C451.498 350.639 454.712 337.624 456.326 323.929C458.116 310.164 459.01 296.454 459.009 282.799C459.113 268.899 459.149 255.841 459.117 243.625C457.837 251.071 455.959 258.044 453.483 264.546C450.936 270.872 447.863 277.41 444.264 284.16C442.062 288.309 439.44 292.424 436.395 296.505C433.526 300.515 429.812 303.44 425.251 305.279C423.497 305.987 422.057 305.956 420.932 305.187C419.735 304.243 418.819 302.982 418.183 301.404L417.44 299.564C415.56 292.374 414.89 284.39 415.428 275.613C416.142 266.765 417.735 258.072 420.206 249.535C422.676 240.998 425.73 233.652 429.366 227.498C433.491 220.536 439.149 215.604 446.34 212.704L476.596 200.502C477.473 200.149 478.053 200.322 478.336 201.024C478.901 202.426 478.395 203.445 476.816 204.082C474.887 204.86 473.364 206.392 472.246 208.677C471.128 210.962 470.414 212.982 470.102 214.738C469.479 218.25 468.931 223.465 468.458 230.381C467.984 237.298 467.601 245.197 467.309 254.078C466.945 262.785 466.653 271.666 466.431 280.723C466.138 289.605 465.932 297.942 465.812 305.735C465.632 317.425 464.732 329.099 463.113 340.758C461.739 352.521 458.889 363.657 454.562 374.166C450.481 384.779 444.326 394.293 436.096 402.707C431.193 407.741 425.146 411.709 417.954 414.609ZM432.433 291.989C434.537 291.14 436.831 288.483 439.312 284.018C441.723 279.377 444.202 273.893 446.748 267.567C449.225 261.066 451.367 254.495 453.176 247.856C454.913 241.041 456.162 235.034 456.921 229.837C457.784 224.394 457.756 220.532 456.837 218.254C456.06 216.325 454.916 215.258 453.405 215.052C452.07 214.775 450.525 214.991 448.771 215.698C445.965 216.83 443.408 219.084 441.099 222.461C438.719 225.662 436.954 228.616 435.802 231.323C434.475 234.1 433.169 238.193 431.884 243.603C430.703 248.766 429.612 254.403 428.61 260.514C427.783 266.554 427.324 272.242 427.233 277.578C427.141 282.914 427.661 286.984 428.792 289.789C429.641 291.892 430.854 292.626 432.433 291.989Z" fill="url(#paint9_linear_116_3)" fill-opacity="0.35"/>
<path d="M500.73 278.814C500.028 279.097 499.71 278.308 499.775 276.447C500.016 274.516 500.099 272.445 500.022 270.233C500.122 267.951 500.15 265.494 500.108 262.862C500.166 257.947 500.186 252.436 500.17 246.328C500.154 240.221 500.121 234.324 500.071 228.637C499.95 222.776 499.884 217.809 499.874 213.737C499.967 209.419 500.065 206.629 500.167 205.365C498.772 208.984 497.134 213.517 495.252 218.964C493.475 224.164 491.838 229.206 490.34 234.09C488.843 238.974 487.73 242.786 486.999 245.526C486.756 246.439 486.459 246.967 486.108 247.108C485.757 247.25 485.405 246.882 485.052 246.006C484.486 244.603 484.394 243.112 484.777 241.531C486.412 235.98 488.187 229.762 490.1 222.876C492.189 215.919 494.016 209.578 495.581 203.852C497.075 197.95 497.978 194.121 498.29 192.365C500.078 191.236 502.672 189.579 506.072 187.392C509.648 185.135 511.89 183.109 512.799 181.317C513.113 180.578 513.533 180.103 514.059 179.891C514.41 179.75 514.727 180.029 515.009 180.731C515.397 181.186 515.469 181.87 515.226 182.783C514.668 184.435 513.993 188.07 513.2 193.689C512.512 199.061 511.773 205.066 510.983 211.703C510.368 218.269 509.716 224.238 509.028 229.611C510.002 225.957 511.186 222.32 512.581 218.701C513.976 215.081 515.319 211.584 516.61 208.211C517.866 205.258 519.7 201.462 522.11 196.821C524.521 192.18 527.213 187.732 530.187 183.475C533.161 179.219 536.068 176.314 538.908 174.761C539.539 174.303 540.118 173.968 540.644 173.755C541.345 173.472 541.871 173.26 542.222 173.119C546.081 171.563 548.576 172.187 549.707 174.992C550.555 177.095 550.546 180.36 549.68 184.785C549.23 187.208 548.609 191.23 547.816 196.848C547.128 202.221 546.528 208.067 546.018 214.387C545.613 220.461 545.365 226.166 545.273 231.501C545.287 236.591 545.718 240.188 546.566 242.291C547.556 244.746 549.278 245.477 551.734 244.487C554.716 243.285 557.36 240.486 559.666 236.091C562.147 231.626 564.574 226.265 566.945 220.01C569.246 213.579 571.44 206.886 573.529 199.929C574.021 200.139 574.444 200.681 574.798 201.558C575.292 202.785 575.349 204.189 574.967 205.769C574.689 207.104 574.376 208.351 574.028 209.511C573.193 212.497 571.992 216.344 570.424 221.053C568.961 225.515 567.41 230.013 565.772 234.546C564.063 238.904 562.369 242.542 560.691 245.46C559.432 247.395 557.682 249.629 555.441 252.163C553.201 254.697 550.677 256.53 547.871 257.662C544.714 258.935 542.203 259.031 540.339 257.948C538.404 256.69 536.942 254.834 535.952 252.38C534.821 249.576 534.146 246.383 533.925 242.804C533.705 239.224 533.643 235.784 533.74 232.484C533.942 228.938 534.11 226.323 534.246 224.637C534.929 217.229 535.49 210.277 535.93 203.782C536.369 197.287 536.655 192.687 536.789 189.984C536.891 188.72 536.8 187.738 536.517 187.036C536.023 185.809 535.023 186.111 533.517 187.941C532.012 189.77 530.281 192.303 528.323 195.538C526.54 198.703 524.933 201.797 523.501 204.82C521.998 207.668 521.038 209.584 520.619 210.568C516.887 220.022 514.261 229.946 512.744 240.341C511.331 250.489 510.725 260.618 510.927 270.727C508.718 271.822 506.685 273.355 504.829 275.326C502.973 277.297 501.607 278.46 500.73 278.814Z" fill="url(#paint10_linear_116_3)" fill-opacity="0.35"/>
<defs>
<linearGradient id="paint0_linear_116_3" x1="243.081" y1="50.9545" x2="393.687" y2="424.396" gradientUnits="userSpaceOnUse">
<stop stop-color="#0D1877"/>
<stop offset="1" stop-color="#480D77"/>
</linearGradient>
<linearGradient id="paint1_linear_116_3" x1="243.081" y1="50.9545" x2="393.687" y2="424.396" gradientUnits="userSpaceOnUse">
<stop stop-color="#0D1877"/>
<stop offset="1" stop-color="#480D77"/>
</linearGradient>
<linearGradient id="paint2_linear_116_3" x1="243.081" y1="50.9545" x2="393.687" y2="424.396" gradientUnits="userSpaceOnUse">
<stop stop-color="#0D1877"/>
<stop offset="1" stop-color="#480D77"/>
</linearGradient>
<linearGradient id="paint3_linear_116_3" x1="243.081" y1="50.9545" x2="393.687" y2="424.396" gradientUnits="userSpaceOnUse">
<stop stop-color="#0D1877"/>
<stop offset="1" stop-color="#480D77"/>
</linearGradient>
<linearGradient id="paint4_linear_116_3" x1="243.081" y1="50.9545" x2="393.687" y2="424.396" gradientUnits="userSpaceOnUse">
<stop stop-color="#0D1877"/>
<stop offset="1" stop-color="#480D77"/>
</linearGradient>
<linearGradient id="paint5_linear_116_3" x1="243.081" y1="50.9545" x2="393.687" y2="424.396" gradientUnits="userSpaceOnUse">
<stop stop-color="#0D1877"/>
<stop offset="1" stop-color="#480D77"/>
</linearGradient>
<linearGradient id="paint6_linear_116_3" x1="243.081" y1="50.9545" x2="393.687" y2="424.396" gradientUnits="userSpaceOnUse">
<stop stop-color="#0D1877"/>
<stop offset="1" stop-color="#480D77"/>
</linearGradient>
<linearGradient id="paint7_linear_116_3" x1="243.081" y1="50.9545" x2="393.687" y2="424.396" gradientUnits="userSpaceOnUse">
<stop stop-color="#0D1877"/>
<stop offset="1" stop-color="#480D77"/>
</linearGradient>
<linearGradient id="paint8_linear_116_3" x1="243.081" y1="50.9545" x2="393.687" y2="424.396" gradientUnits="userSpaceOnUse">
<stop stop-color="#0D1877"/>
<stop offset="1" stop-color="#480D77"/>
</linearGradient>
<linearGradient id="paint9_linear_116_3" x1="243.081" y1="50.9545" x2="393.687" y2="424.396" gradientUnits="userSpaceOnUse">
<stop stop-color="#0D1877"/>
<stop offset="1" stop-color="#480D77"/>
</linearGradient>
<linearGradient id="paint10_linear_116_3" x1="243.081" y1="50.9545" x2="393.687" y2="424.396" gradientUnits="userSpaceOnUse">
<stop stop-color="#0D1877"/>
<stop offset="1" stop-color="#480D77"/>
</linearGradient>
</defs>
</svg>
