<svg width="1484" height="2537" viewBox="0 0 1484 2537" fill="none" xmlns="http://www.w3.org/2000/svg">
<path d="M1042.61 1146.69V1153.94V1168C1080.5 1225 1178.5 1213 1261 1462.5C1261 1462.5 1295.41 1467 1298 1481.5C1303 1509.5 1315.72 1561.99 1318.5 1621.5C1322.16 1699.96 1310 1744 1303.5 1778C1298.5 1796.5 1268 1801 1268 1801C1255.66 1845.89 1247.97 1872.06 1230.82 1915C1241.4 1928.71 1244.22 1936.44 1243 1950C1239.21 1961.9 1234.1 1975.27 1230.82 1984C1222.7 1995.77 1211.86 2000.99 1196.55 1998.9C1191.96 2008.5 1186.89 2018.01 1181.04 2027.5C1181.99 2030.04 1182.99 2032.46 1184 2034.77C1281.66 2082.98 1283.5 2170 1239.5 2286C1201.76 2385.5 1144.65 2490.71 1075.5 2521.5C1002.5 2554 892 2516.5 863.154 2415.5C861.801 2412.85 860.58 2410.18 859.5 2407.5C832.5 2340.5 858.5 2308.51 863.5 2221.01C847.977 2205.44 837.192 2191.45 829.345 2177C807.845 2240 774.184 2302.5 737 2347.5C658.5 2442.5 492 2411.5 476.143 2307C450.155 2265.97 459.383 2214 466.936 2113.85C444.773 2095.63 436.17 2080.37 431 2056C405.5 2025.5 390.796 1999.16 396 1972.5C397.488 1969.23 400.038 1965.95 403.546 1963.21C403.53 1963.14 403.515 1963.07 403.5 1963C386.268 1884.46 372.133 1793.69 366.67 1716.95C363.834 1720.28 359.611 1723.19 353.441 1725.5C332.789 1847.74 359.5 1822.46 359.5 1883.5C347.5 1954 274 1989 227.5 1970C164.803 1938.65 136.655 1870.35 150.578 1727.5C136.218 1717.7 129.828 1711.03 130 1691C130.107 1678.5 135.158 1656 139.5 1650.5C146.02 1642.24 152.298 1636.46 160.627 1631.91C166.152 1584.97 175.994 1550.79 179.5 1523.5C179.5 1523.5 157 1501.5 192 1391.5C227 1281.5 258.5 1275.5 258.5 1275.5C310.15 1177.81 355 1152.5 370 1140.56L369.281 1140.32L368.111 1139.94C327.11 1126.45 221.63 1076.1 166.11 1025.83C108.798 973.936 97.6163 936.529 69.1097 871.189C34.8103 792.572 18.1097 654.689 18.1097 654.689C18.1097 654.689 3.60856 616.689 5.10888 574.189C6.60919 531.689 13.6106 511.689 13.6106 511.689C16.6092 455.689 24.1094 391.189 47.6094 334.189C71.1094 277.189 112.109 221.689 142.609 191.189C173.11 160.689 249.609 97.6892 336.109 63.6892C422.609 29.6892 480.631 17.9013 560.609 9.68919C672.609 -1.8109 822.109 7.77431 931.109 39.1891C1045.61 72.1891 1115.61 102.79 1196.11 160.689C1273.17 216.115 1330.61 280.689 1369.11 354.689C1407.61 428.689 1411.61 561.189 1411.61 561.189C1411.61 561.189 1428.61 558.189 1445.61 575.189C1462.61 592.189 1465.61 633.189 1465.61 633.189C1465.61 633.189 1493.11 664.189 1469.11 771.689C1445.11 879.189 1401.5 896.5 1401.5 896.5C1401.5 896.5 1369.4 938.624 1349.11 943.189C1329.11 947.689 1317.11 938.189 1317.11 938.189C1290.11 976.189 1249.77 1030.98 1193.11 1067.69C1125.61 1118.19 1067.61 1138.69 1042.61 1146.69Z" fill="url(#paint0_linear_356_35)"/>
<path d="M488.611 1173.44C637.611 1241.94 1021.61 1232.44 1041.61 1153.94H1042.61M488.611 1173.44C488.611 1173.44 680.837 1196.21 800.5 1153.94C973 1093 1020.61 829.189 1020.61 829.189M488.611 1173.44C438.562 1164 413.991 1155.05 370 1140.56M1042.61 1153.94V1146.69C1067.61 1138.69 1125.61 1118.19 1193.11 1067.69C1249.77 1030.98 1290.11 976.189 1317.11 938.189M1042.61 1153.94V1168C1080.5 1225 1178.5 1213 1261 1462.5M18.1097 654.689C18.1097 654.689 34.8103 792.572 69.1097 871.189C97.6163 936.529 108.798 973.936 166.11 1025.83C221.63 1076.1 327.11 1126.45 368.111 1139.94C368.745 1140.15 369.374 1140.35 370 1140.56M18.1097 654.689C18.1097 654.689 3.60856 616.689 5.10888 574.189C6.60919 531.689 13.6106 511.689 13.6106 511.689M18.1097 654.689C18.1097 654.689 14.4891 607.612 13.6106 579.689C12.732 551.767 13.6106 511.689 13.6106 511.689M13.6106 511.689C16.6092 455.689 24.1094 391.189 47.6094 334.189C71.1094 277.189 112.109 221.689 142.609 191.189C173.11 160.689 249.609 97.6892 336.109 63.6892C422.609 29.6892 480.631 17.9013 560.609 9.68919C672.609 -1.8109 822.109 7.77431 931.109 39.1891C1045.61 72.1891 1115.61 102.79 1196.11 160.689C1273.17 216.115 1330.61 280.689 1369.11 354.689C1407.61 428.689 1411.61 561.189 1411.61 561.189M13.6106 511.689C13.6106 511.689 39.0436 371.842 73.5 326C131 249.5 225.671 245.431 312 240C381.507 235.627 509 240 611.5 273.5C745.114 307.817 885.444 373.824 944 434C994.581 485.98 1015.17 510.5 1033.8 582.5C1050.95 648.755 1033.8 741 1033.8 741M1411.61 561.189C1411.61 561.189 1428.61 558.189 1445.61 575.189C1462.61 592.189 1465.61 633.189 1465.61 633.189M1411.61 561.189C1411.61 561.189 1400.11 561.689 1387.11 570.689C1355.33 592.689 1319.61 663.189 1305.11 723.689C1289.42 789.131 1282.65 833.384 1292.11 897.689C1296.15 925.189 1317.11 938.189 1317.11 938.189M1465.61 633.189C1465.61 633.189 1493.11 664.189 1469.11 771.689C1445.11 879.189 1401.5 896.5 1401.5 896.5M1465.61 633.189C1465.61 633.189 1450.41 603 1422 638.5C1393.59 674 1372 749 1372 749C1372 749 1338.5 861 1367.5 895.5C1377.96 907.949 1401.5 896.5 1401.5 896.5M1401.5 896.5C1401.5 896.5 1369.4 938.624 1349.11 943.189C1329.11 947.689 1317.11 938.189 1317.11 938.189M1020.61 829.189C997.847 938.383 969.211 1017.8 885.109 1077.69C819.109 1124.69 647.991 1156.82 492.109 1126.69C344.995 1098.25 246.109 1040.19 159.109 947.689C106.828 892.102 63.3286 724.966 64.1094 583.689C64.7354 470.417 65.4423 402.652 108.609 344.189C172.109 258.189 405.109 259.189 547.109 293.689C668.159 323.099 831.609 378.689 923.609 443.689C967.233 474.51 993.662 514.626 1006.11 544.189C1029.81 600.471 1040.27 662.941 1033.8 741M1020.61 829.189C1027.19 797.61 1031.54 768.348 1033.8 741M1261 1462.5C1261 1462.5 1295.41 1467 1298 1481.5C1303 1509.5 1315.72 1561.99 1318.5 1621.5C1322.16 1699.96 1310 1744 1303.5 1778C1298.5 1796.5 1268 1801 1268 1801M1261 1462.5C1247.5 1470.5 1233.5 1477.5 1233.5 1507.5C1233.5 1545.5 1240.56 1600.71 1241.5 1636C1242.9 1688.5 1234.87 1728 1244 1771C1247.93 1789.5 1268 1801 1268 1801M1268 1801C1255.66 1845.89 1247.97 1872.06 1230.82 1915M1162 2054.5C1160.5 2066 1178 2048.26 1207 2074C1229.14 2094.79 1244.58 2131.37 1239 2168C1218.5 2302.5 1141.5 2469.99 1050 2498C979.812 2519.49 891.821 2471.67 863.154 2415.5M1162 2054.5C1169.23 2045.49 1175.49 2036.5 1181.04 2027.5M1162 2054.5C1162 2114 1134 2197.19 1082 2224C1001.5 2265.5 867.5 2215.5 815 2141.5M1162 2054.5C1110.46 2121.35 1084.12 2145.79 1028 2166.9C1019.85 2169.96 1011.07 2172.96 1001.5 2176C933 2197.77 905 2119.5 949 2079.5M370 1140.56C355 1152.5 310.15 1177.81 258.5 1275.5M258.5 1275.5C227.287 1334.53 186.826 1466.48 179.5 1523.5M258.5 1275.5C258.5 1275.5 227 1281.5 192 1391.5C157 1501.5 179.5 1523.5 179.5 1523.5M179.5 1523.5C175.967 1551 166 1585.5 160.5 1633L151.5 1718.5C151.174 1721.53 150.867 1724.53 150.578 1727.5M863.5 2221.01C858.5 2308.51 832.5 2340.5 859.5 2407.5C860.58 2410.18 861.801 2412.85 863.154 2415.5M863.5 2221.01C822.509 2179.88 814.553 2149.83 806.5 2093.01C802.518 2090.87 798.684 2088.7 795 2086.49M863.5 2221.01C920 2279.01 1045 2299 1103 2268C1170.5 2231.92 1201 2114.5 1194 2061C1192.94 2052.87 1188.39 2044.8 1184 2034.77M815 2141.5C768.5 2254.5 716.5 2352 647.5 2373.5C602.5 2387.52 526 2373.5 481 2314C479.259 2311.7 477.643 2309.37 476.143 2307M815 2141.5C800 2125 790 2094 795 2086.49M815 2141.5C889.511 2225.58 946.5 2249.5 993.5 2221.01C1001.5 2216.17 1009.5 2203 1009.5 2192.5C1009.5 2160.5 988 2108.4 925.5 2098.5C837.175 2084.51 798.355 2079.33 795 2086.49M734 1880C736 1890.5 735.367 1908.57 734 1920C727.367 1975.45 731.716 2011.9 746 2038.61M1003 1523.5C1045.9 1516.52 1071.77 1606.1 1066.5 1686C1057.5 1822.5 969.5 1913 927.5 1998.5C912.553 2028.93 918 2058.5 933.5 2070.5C947.251 2081.15 977 2080.5 1004.5 2065C1032 2049.5 1046 2043 1057.5 2043M1230.82 1915C1229.91 1917.28 1228.97 1919.62 1228 1922C1212.85 1959.32 1201.97 1993.55 1181.04 2027.5M1230.82 1915C1241.4 1928.71 1244.22 1936.44 1243 1950C1239.21 1961.9 1234.1 1975.27 1230.82 1984C1221.5 1997.5 1208.61 2002.38 1189.5 1997.5C1167 1991.76 1000 1883 991.5 1860.5C989.611 1855.5 989.476 1847 991.5 1838.5C993.524 1830 1001.5 1822.5 1010.11 1809.5C1018.4 1797 1032 1794.5 1040.5 1794.5C1045 1807 1102.5 1840.5 1150 1876.5C1179.5 1898.86 1201.5 1913 1220.5 1921C1231.5 1925 1232 1923 1230.82 1915ZM1181.04 2027.5C1181.99 2030.04 1182.99 2032.46 1184 2034.77M1184 2034.77C1281.66 2082.98 1283.5 2170 1239.5 2286C1201.76 2385.5 1144.65 2490.71 1075.5 2521.5C1002.5 2554 892 2516.5 863.154 2415.5M476.143 2307C450.082 2265.85 459.435 2213.71 467 2113C451.5 2044.5 419.956 2038 403.5 1963C365.858 1791.45 343 1561.5 393 1547C366.779 1556.84 358.021 1591.88 355 1716.5C354.453 1719.59 353.933 1722.58 353.441 1725.5M476.143 2307C492 2411.5 658.5 2442.5 737 2347.5C774.184 2302.5 807.845 2240 829.345 2177M431 2056C405.5 2025.5 390.796 1999.16 396 1972.5C398.5 1967 404 1961.5 412 1958.5C417.5 1957 443.561 1971.51 472.5 1984C510.5 2000.4 538.524 2009.71 554 2020.5C592 2047 604.467 2068.72 601.5 2088.5C600 2098.5 578.098 2108.15 562 2111.5C522.653 2119.68 469.566 2102.13 431 2056ZM431 2056C437.731 2087.73 450.282 2104.01 491 2131.5C548.5 2170.33 720.5 2187.5 773 2071.09M431 2056C475.5 2109 521.375 2113 562 2117.66C666.5 2129.64 726 2084 746 2038.61M773 2071.09C761.829 2061.8 752.791 2051.31 746 2038.61M773 2071.09C779.597 2076.57 786.938 2081.64 795 2086.49M150.578 1727.5C136.655 1870.35 164.803 1938.65 227.5 1970C274 1989 347.5 1954 359.5 1883.5C359.5 1822.46 332.789 1847.74 353.441 1725.5M150.578 1727.5C136.218 1717.7 129.828 1711.03 130 1691C130.107 1678.5 135.158 1656 139.5 1650.5C153.316 1633 166.043 1626.64 199.5 1619.5C241.5 1610.54 324 1616.5 362 1630C370.219 1632.92 369.745 1652.58 369.5 1674C369.294 1692 381.5 1715 353.441 1725.5M150.578 1727.5C150.578 1727.5 148.844 1723.93 149.5 1720C150 1717 152.024 1713.74 159 1708.5C184 1691 248.5 1692 303 1694.5C322.48 1695.39 332.5 1696 344 1705.5C358.528 1716.69 355.712 1719.55 353.441 1725.5" stroke="#120B38"/>
<path d="M258.503 1274.56C227.291 1333.6 186.829 1465.54 179.503 1522.56C175.997 1549.85 166.156 1584.04 160.63 1630.97C169.95 1625.88 181.836 1622.33 199.503 1618.56C240.556 1609.81 320.304 1615.3 359.366 1628.16C364.083 1577.96 372.579 1557.08 387.972 1548.4C389.56 1547.36 391.236 1546.58 393.003 1546.06C391.249 1546.72 389.573 1547.49 387.972 1548.4C373.59 1557.8 366.465 1588.31 364.693 1630.91C370.107 1636.92 369.718 1654.32 369.503 1673.06C369.343 1687.1 376.736 1704.19 366.673 1716.01C372.137 1792.75 386.271 1883.52 403.503 1962.06C403.519 1962.13 403.534 1962.2 403.549 1962.27C405.935 1960.4 408.764 1958.78 412.003 1957.56C417.503 1956.06 443.565 1970.57 472.503 1983.06C510.503 1999.46 538.527 2008.77 554.003 2019.56C592.003 2046.06 604.47 2067.78 601.503 2087.56C600.003 2097.56 578.101 2107.22 562.003 2110.56C531.055 2117 491.607 2107.51 457.41 2080.72C457.475 2080.89 457.54 2081.05 457.605 2081.21C493.503 2109.68 529.439 2112.99 562.003 2116.72C666.503 2128.7 726.003 2083.06 746.003 2037.67C752.795 2050.37 761.832 2060.86 773.003 2070.15C779.6 2075.64 786.941 2080.7 795.003 2085.55C798.358 2078.4 837.178 2083.58 925.503 2097.56C928.329 2098.01 931.071 2098.54 933.731 2099.16C979.56 2109.74 1001.05 2144.23 1007.4 2173.16C1014.72 2170.76 1021.56 2168.38 1028 2165.96C1084.12 2144.86 1110.46 2120.41 1162 2053.56C1169.24 2044.55 1175.49 2035.57 1181.04 2026.56C1186.9 2017.07 1191.96 2007.56 1196.56 1997.96C1194.3 1997.65 1191.95 1997.19 1189.5 1996.56C1169.97 1991.58 1041.51 1908.94 1002.43 1872.52C996.497 1866.99 992.624 1862.53 991.503 1859.56C989.614 1854.56 989.48 1846.06 991.503 1837.56C993.527 1829.06 1001.5 1821.56 1010.12 1808.56C1018.4 1796.06 1032 1793.56 1040.5 1793.56C1040.65 1793.98 1040.86 1794.42 1041.13 1794.89C1048.84 1808.31 1104.09 1840.77 1150 1875.56C1179.5 1897.92 1201.5 1912.06 1220.5 1920.06C1223.68 1921.22 1225.98 1921.87 1227.61 1922.03C1227.74 1921.71 1227.87 1921.38 1228 1921.06C1228.97 1918.68 1229.91 1916.35 1230.82 1914.06C1247.98 1871.12 1255.66 1844.96 1268 1800.06C1268 1800.06 1247.93 1788.56 1244 1770.06C1234.88 1727.06 1242.9 1687.56 1241.5 1635.06C1240.56 1599.77 1233.5 1544.56 1233.5 1506.56C1233.5 1476.56 1247.5 1469.56 1261 1461.56C1261 1461.56 1295.41 1466.06 1298 1480.56C1303 1508.56 1315.73 1561.06 1318.5 1620.56C1322.17 1699.03 1310 1743.06 1303.5 1777.06C1298.5 1795.56 1268 1800.06 1268 1800.06C1255.66 1844.96 1247.98 1871.12 1230.82 1914.06C1241.41 1927.78 1244.22 1935.5 1243 1949.06C1239.21 1960.96 1234.11 1974.34 1230.82 1983.06C1222.7 1994.83 1211.86 2000.05 1196.56 1997.96C1191.96 2007.56 1186.9 2017.07 1181.04 2026.56C1181.99 2029.11 1182.99 2031.52 1184 2033.83C1281.66 2082.04 1283.5 2169.06 1239.5 2285.06C1201.76 2384.56 1144.66 2489.78 1075.5 2520.56C1002.5 2553.06 892.003 2515.56 863.157 2414.56C891.824 2470.73 979.815 2518.55 1050 2497.06C1141.5 2469.05 1218.5 2301.56 1239 2167.06C1244.59 2130.43 1229.14 2093.86 1207 2073.06C1202.53 2069.1 1198.34 2066.16 1194.44 2063.99C1199.53 2119.11 1168.9 2231.84 1103 2267.06C1045 2298.06 920.003 2278.08 863.503 2220.08C847.981 2204.5 837.195 2190.52 829.348 2176.06C807.848 2239.06 774.188 2301.56 737.003 2346.56C658.503 2441.56 492.003 2410.56 476.147 2306.06C477.646 2308.43 479.263 2310.76 481.003 2313.06C526.003 2372.56 602.503 2386.58 647.503 2372.56C716.503 2351.06 768.503 2253.56 815.003 2140.56C800.003 2124.06 790.003 2093.06 795.003 2085.55C786.941 2080.7 779.6 2075.64 773.003 2070.15C720.503 2186.56 548.503 2169.39 491.003 2130.56C450.286 2103.07 437.734 2086.79 431.003 2055.06C405.503 2024.56 390.799 1998.22 396.003 1971.56C397.491 1968.29 400.042 1965.02 403.549 1962.27C403.534 1962.2 403.519 1962.13 403.503 1962.06C386.271 1883.52 372.137 1792.75 366.673 1716.01C363.837 1719.34 359.614 1722.25 353.444 1724.56C353.906 1721.83 354.391 1719.03 354.9 1716.14C353.927 1713.36 350.945 1709.91 344.003 1704.56C332.503 1695.06 322.483 1694.46 303.003 1693.56C248.503 1691.06 184.003 1690.06 159.003 1707.56C155.55 1710.16 153.31 1712.27 151.868 1714.1L151.503 1717.56C151.178 1720.6 150.87 1723.6 150.581 1726.56C136.221 1716.76 129.831 1710.1 130.003 1690.06C130.111 1677.56 135.161 1655.06 139.503 1649.56C146.024 1641.3 152.302 1635.52 160.63 1630.97C166.156 1584.04 175.997 1549.85 179.503 1522.56C179.503 1522.56 157.003 1500.56 192.003 1390.56C227.003 1280.56 258.503 1274.56 258.503 1274.56Z" fill="url(#paint1_linear_356_35)"/>
<path d="M368.114 1139C368.748 1139.21 369.378 1139.42 370.003 1139.62C355.003 1151.56 310.153 1176.88 258.503 1274.56M1041.61 1153H1042.61M1042.61 1145.75V1153M1042.61 1153V1167.06C1080.5 1224.06 1178.5 1212.06 1261 1461.56M1261 1461.56C1261 1461.56 1295.41 1466.06 1298 1480.56C1303 1508.56 1315.73 1561.06 1318.5 1620.56C1322.17 1699.03 1310 1743.06 1303.5 1777.06C1298.5 1795.56 1268 1800.06 1268 1800.06M1261 1461.56C1247.5 1469.56 1233.5 1476.56 1233.5 1506.56C1233.5 1544.56 1240.56 1599.77 1241.5 1635.06C1242.9 1687.56 1234.88 1727.06 1244 1770.06C1247.93 1788.56 1268 1800.06 1268 1800.06M1268 1800.06C1255.66 1844.96 1247.98 1871.12 1230.82 1914.06M1162 2053.56C1160.5 2065.06 1178 2047.32 1207 2073.06C1229.14 2093.86 1244.59 2130.43 1239 2167.06C1218.5 2301.56 1141.5 2469.05 1050 2497.06C979.815 2518.55 891.824 2470.73 863.157 2414.56M1162 2053.56C1169.24 2044.55 1175.49 2035.57 1181.04 2026.56M1162 2053.56C1162 2113.06 1134 2196.26 1082 2223.06C1001.5 2264.56 867.503 2214.56 815.003 2140.56M1162 2053.56C1110.46 2120.41 1084.12 2144.86 1028 2165.96C1019.85 2169.03 1011.08 2172.02 1001.5 2175.06C933.003 2196.84 905.003 2118.56 949.003 2078.56M258.503 1274.56C227.291 1333.6 186.829 1465.54 179.503 1522.56M258.503 1274.56C258.503 1274.56 227.003 1280.56 192.003 1390.56C157.003 1500.56 179.503 1522.56 179.503 1522.56M179.503 1522.56C175.97 1550.06 166.003 1584.56 160.503 1632.06L151.503 1717.56C151.178 1720.6 150.87 1723.6 150.581 1726.56M227.503 1969.06C164.806 1937.71 136.658 1869.42 150.581 1726.56M859.503 2406.56C860.584 2409.24 861.804 2411.91 863.157 2414.56M467.003 2112.06C451.503 2043.56 419.96 2037.06 403.503 1962.06C365.862 1790.51 343.003 1560.56 393.003 1546.06C366.782 1555.91 358.024 1590.94 355.003 1715.56C354.456 1718.65 353.937 1721.65 353.444 1724.56M815.003 2140.56C768.503 2253.56 716.503 2351.06 647.503 2372.56C602.503 2386.58 526.003 2372.56 481.003 2313.06C479.263 2310.76 477.646 2308.43 476.147 2306.06C492.003 2410.56 658.503 2441.56 737.003 2346.56C774.188 2301.56 807.848 2239.06 829.348 2176.06M815.003 2140.56C800.003 2124.06 790.003 2093.06 795.003 2085.55M815.003 2140.56C889.515 2224.65 946.503 2248.56 993.503 2220.08C1001.5 2215.23 1009.5 2202.06 1009.5 2191.56C1009.5 2159.56 988.003 2107.46 925.503 2097.56C837.178 2083.58 798.358 2078.4 795.003 2085.55M734.003 1879.06C736.003 1889.56 735.371 1907.63 734.003 1919.06C727.37 1974.52 731.719 2010.96 746.003 2037.67M1003 1522.56C1045.91 1515.58 1071.77 1605.16 1066.5 1685.06C1057.5 1821.56 969.503 1912.06 927.503 1997.56C912.557 2027.99 918.003 2057.56 933.503 2069.56C947.255 2080.21 977.003 2079.56 1004.5 2064.06C1032 2048.56 1046 2042.06 1057.5 2042.06M1230.82 1914.06C1229.91 1916.35 1228.97 1918.68 1228 1921.06C1212.85 1958.38 1201.97 1992.62 1181.04 2026.56M1230.82 1914.06C1241.41 1927.78 1244.22 1935.5 1243 1949.06C1239.21 1960.96 1234.11 1974.34 1230.82 1983.06C1221.5 1996.56 1208.61 2001.44 1189.5 1996.56C1167 1990.82 1000 1882.06 991.503 1859.56C989.614 1854.56 989.48 1846.06 991.503 1837.56C993.527 1829.06 1001.5 1821.56 1010.12 1808.56C1018.4 1796.06 1032 1793.56 1040.5 1793.56C1045 1806.06 1102.5 1839.56 1150 1875.56C1179.5 1897.92 1201.5 1912.06 1220.5 1920.06C1231.5 1924.06 1232 1922.06 1230.82 1914.06ZM1181.04 2026.56C1181.99 2029.11 1182.99 2031.52 1184 2033.83M1184 2033.83C1188.39 2043.86 1192.94 2051.93 1194 2060.06C1201 2113.56 1170.5 2230.99 1103 2267.06C1045 2298.06 920.003 2278.08 863.503 2220.08C822.512 2178.95 814.556 2148.9 806.503 2092.08C802.521 2089.93 798.687 2087.76 795.003 2085.55M1184 2033.83C1281.66 2082.04 1283.5 2169.06 1239.5 2285.06C1201.76 2384.56 1144.66 2489.78 1075.5 2520.56C1002.5 2553.06 892.003 2515.56 863.157 2414.56M431.003 2055.06C405.503 2024.56 390.799 1998.22 396.003 1971.56C398.503 1966.06 404.003 1960.56 412.003 1957.56C417.503 1956.06 443.565 1970.57 472.503 1983.06C510.503 1999.46 538.527 2008.77 554.003 2019.56C592.003 2046.06 604.47 2067.78 601.503 2087.56C600.003 2097.56 578.101 2107.22 562.003 2110.56C522.656 2118.74 469.569 2101.19 431.003 2055.06ZM431.003 2055.06C437.734 2086.79 450.286 2103.07 491.003 2130.56C548.503 2169.39 720.503 2186.56 773.003 2070.15M431.003 2055.06C475.503 2108.06 521.378 2112.06 562.003 2116.72C666.503 2128.7 726.003 2083.06 746.003 2037.67M773.003 2070.15C761.832 2060.86 752.795 2050.37 746.003 2037.67M773.003 2070.15C779.6 2075.64 786.941 2080.7 795.003 2085.55M150.581 1726.56C136.221 1716.76 129.831 1710.1 130.003 1690.06C130.111 1677.56 135.161 1655.06 139.503 1649.56C153.319 1632.06 166.046 1625.7 199.503 1618.56C241.503 1609.61 324.003 1615.56 362.003 1629.06C370.222 1631.98 369.749 1651.65 369.503 1673.06C369.297 1691.06 381.503 1714.06 353.444 1724.56M150.581 1726.56C150.581 1726.56 148.848 1723 149.503 1719.06C150.003 1716.06 152.027 1712.81 159.003 1707.56C184.003 1690.06 248.503 1691.06 303.003 1693.56C322.483 1694.46 332.503 1695.06 344.003 1704.56C358.531 1715.76 355.715 1718.61 353.444 1724.56" stroke="#120B38"/>
<path d="M368.114 1139C368.748 1139.21 369.378 1139.42 370.003 1139.62C355.003 1151.56 310.153 1176.88 258.503 1274.56M1041.61 1153H1042.61M1042.61 1145.75V1153M1042.61 1153V1167.06C1080.5 1224.06 1178.5 1212.06 1261 1461.56M1261 1461.56C1261 1461.56 1295.41 1466.06 1298 1480.56C1303 1508.56 1315.73 1561.06 1318.5 1620.56C1322.17 1699.03 1310 1743.06 1303.5 1777.06C1298.5 1795.56 1268 1800.06 1268 1800.06M1261 1461.56C1247.5 1469.56 1233.5 1476.56 1233.5 1506.56C1233.5 1544.56 1240.56 1599.77 1241.5 1635.06C1242.9 1687.56 1234.88 1727.06 1244 1770.06C1247.93 1788.56 1268 1800.06 1268 1800.06M1268 1800.06C1255.66 1844.96 1247.98 1871.12 1230.82 1914.06M1162 2053.56C1160.5 2065.06 1178 2047.32 1207 2073.06C1229.14 2093.86 1244.59 2130.43 1239 2167.06C1218.5 2301.56 1141.5 2469.05 1050 2497.06C979.815 2518.55 891.824 2470.73 863.157 2414.56M1162 2053.56C1169.24 2044.55 1175.49 2035.57 1181.04 2026.56M1162 2053.56C1162 2113.06 1134 2196.26 1082 2223.06C1001.5 2264.56 867.503 2214.56 815.003 2140.56M1162 2053.56C1110.46 2120.41 1084.12 2144.86 1028 2165.96C1019.85 2169.03 1011.08 2172.02 1001.5 2175.06C933.003 2196.84 905.003 2118.56 949.003 2078.56M258.503 1274.56C227.291 1333.6 186.829 1465.54 179.503 1522.56M258.503 1274.56C258.503 1274.56 227.003 1280.56 192.003 1390.56C157.003 1500.56 179.503 1522.56 179.503 1522.56M179.503 1522.56C175.97 1550.06 166.003 1584.56 160.503 1632.06L151.503 1717.56C151.178 1720.6 150.87 1723.6 150.581 1726.56M227.503 1969.06C164.806 1937.71 136.658 1869.42 150.581 1726.56M859.503 2406.56C860.584 2409.24 861.804 2411.91 863.157 2414.56M467.003 2112.06C451.503 2043.56 419.96 2037.06 403.503 1962.06C365.862 1790.51 343.003 1560.56 393.003 1546.06C366.782 1555.91 358.024 1590.94 355.003 1715.56C354.456 1718.65 353.937 1721.65 353.444 1724.56M815.003 2140.56C768.503 2253.56 716.503 2351.06 647.503 2372.56C602.503 2386.58 526.003 2372.56 481.003 2313.06C479.263 2310.76 477.646 2308.43 476.147 2306.06C492.003 2410.56 658.503 2441.56 737.003 2346.56C774.188 2301.56 807.848 2239.06 829.348 2176.06M815.003 2140.56C800.003 2124.06 790.003 2093.06 795.003 2085.55M815.003 2140.56C889.515 2224.65 946.503 2248.56 993.503 2220.08C1001.5 2215.23 1009.5 2202.06 1009.5 2191.56C1009.5 2159.56 988.003 2107.46 925.503 2097.56C837.178 2083.58 798.358 2078.4 795.003 2085.55M734.003 1879.06C736.003 1889.56 735.371 1907.63 734.003 1919.06C727.37 1974.52 731.719 2010.96 746.003 2037.67M1003 1522.56C1045.91 1515.58 1071.77 1605.16 1066.5 1685.06C1057.5 1821.56 969.503 1912.06 927.503 1997.56C912.557 2027.99 918.003 2057.56 933.503 2069.56C947.255 2080.21 977.003 2079.56 1004.5 2064.06C1032 2048.56 1046 2042.06 1057.5 2042.06M1230.82 1914.06C1229.91 1916.35 1228.97 1918.68 1228 1921.06C1212.85 1958.38 1201.97 1992.62 1181.04 2026.56M1230.82 1914.06C1241.41 1927.78 1244.22 1935.5 1243 1949.06C1239.21 1960.96 1234.11 1974.34 1230.82 1983.06C1221.5 1996.56 1208.61 2001.44 1189.5 1996.56C1167 1990.82 1000 1882.06 991.503 1859.56C989.614 1854.56 989.48 1846.06 991.503 1837.56C993.527 1829.06 1001.5 1821.56 1010.12 1808.56C1018.4 1796.06 1032 1793.56 1040.5 1793.56C1045 1806.06 1102.5 1839.56 1150 1875.56C1179.5 1897.92 1201.5 1912.06 1220.5 1920.06C1231.5 1924.06 1232 1922.06 1230.82 1914.06ZM1181.04 2026.56C1181.99 2029.11 1182.99 2031.52 1184 2033.83M1184 2033.83C1188.39 2043.86 1192.94 2051.93 1194 2060.06C1201 2113.56 1170.5 2230.99 1103 2267.06C1045 2298.06 920.003 2278.08 863.503 2220.08C822.512 2178.95 814.556 2148.9 806.503 2092.08C802.521 2089.93 798.687 2087.76 795.003 2085.55M1184 2033.83C1281.66 2082.04 1283.5 2169.06 1239.5 2285.06C1201.76 2384.56 1144.66 2489.78 1075.5 2520.56C1002.5 2553.06 892.003 2515.56 863.157 2414.56M431.003 2055.06C405.503 2024.56 390.799 1998.22 396.003 1971.56C398.503 1966.06 404.003 1960.56 412.003 1957.56C417.503 1956.06 443.565 1970.57 472.503 1983.06C510.503 1999.46 538.527 2008.77 554.003 2019.56C592.003 2046.06 604.47 2067.78 601.503 2087.56C600.003 2097.56 578.101 2107.22 562.003 2110.56C522.656 2118.74 469.569 2101.19 431.003 2055.06ZM431.003 2055.06C437.734 2086.79 450.286 2103.07 491.003 2130.56C548.503 2169.39 720.503 2186.56 773.003 2070.15M431.003 2055.06C475.503 2108.06 521.378 2112.06 562.003 2116.72C666.503 2128.7 726.003 2083.06 746.003 2037.67M773.003 2070.15C761.832 2060.86 752.795 2050.37 746.003 2037.67M773.003 2070.15C779.6 2075.64 786.941 2080.7 795.003 2085.55M150.581 1726.56C136.221 1716.76 129.831 1710.1 130.003 1690.06C130.111 1677.56 135.161 1655.06 139.503 1649.56C153.319 1632.06 166.046 1625.7 199.503 1618.56C241.503 1609.61 324.003 1615.56 362.003 1629.06C370.222 1631.98 369.749 1651.65 369.503 1673.06C369.297 1691.06 381.503 1714.06 353.444 1724.56M150.581 1726.56C150.581 1726.56 148.848 1723 149.503 1719.06C150.003 1716.06 152.027 1712.81 159.003 1707.56C184.003 1690.06 248.503 1691.06 303.003 1693.56C322.483 1694.46 332.503 1695.06 344.003 1704.56C358.531 1715.76 355.715 1718.61 353.444 1724.56" stroke="#120B38" stroke-width="10"/>
<path d="M1050 2497.06C1141.5 2469.05 1218.5 2301.56 1239 2167.06C1244.59 2130.43 1229.14 2093.86 1207 2073.06C1202.53 2069.1 1198.34 2066.16 1194.44 2063.99C1199.53 2119.11 1168.9 2231.84 1103 2267.06C1045 2298.06 920.003 2278.08 863.503 2220.08C847.981 2204.5 837.195 2190.52 829.348 2176.06C807.848 2239.06 774.188 2301.56 737.003 2346.56C658.503 2441.56 492.003 2410.56 476.147 2306.06C477.646 2308.43 479.263 2310.76 481.003 2313.06C526.003 2372.56 602.503 2386.58 647.503 2372.56C716.503 2351.06 768.503 2253.56 815.003 2140.56C800.003 2124.06 790.003 2093.06 795.003 2085.55C786.941 2080.7 779.6 2075.64 773.003 2070.15C720.503 2186.56 548.503 2169.39 491.003 2130.56C450.286 2103.07 437.734 2086.79 431.003 2055.06C405.503 2024.56 390.799 1998.22 396.003 1971.56C397.491 1968.29 400.042 1965.02 403.549 1962.27C403.534 1962.2 403.519 1962.13 403.503 1962.06C384.461 1875.28 369.202 1773.55 365.245 1692.32C362.948 1705.87 358.608 1719.05 353.444 1724.56C353.906 1721.83 354.391 1719.03 354.9 1716.14C353.927 1713.36 350.945 1709.91 344.003 1704.56C332.503 1695.06 322.483 1694.46 303.003 1693.56C248.503 1691.06 184.003 1690.06 159.003 1707.56C152.027 1712.81 151.5 1717.5 151 1720.5C150.674 1723.53 150.87 1723.6 150.581 1726.56C136.221 1716.76 129.831 1710.1 130.003 1690.06C130.111 1677.56 135.161 1655.06 139.503 1649.56C146.024 1641.3 152.302 1635.53 160.63 1630.97C169.95 1625.88 181.836 1622.33 199.503 1618.56C240.278 1609.87 319.222 1615.23 358.565 1627.9C362.351 1577.97 369.775 1558.08 388.004 1548.38C389.582 1547.35 391.248 1546.57 393.003 1546.06C391.252 1546.77 389.587 1547.53 388.004 1548.38C373.581 1557.77 366.448 1588.35 364.686 1631.08C369.49 1637.39 367.213 1655.39 367 1674C366.935 1679.7 366.309 1686.05 365.245 1692.32C369.202 1773.55 384.461 1875.28 403.503 1962.06C403.519 1962.13 403.534 1962.2 403.549 1962.27C405.935 1960.4 408.764 1958.78 412.003 1957.56C417.503 1956.06 443.565 1970.57 472.503 1983.06C510.503 1999.46 538.527 2008.77 554.003 2019.56C592.003 2046.06 604.47 2067.78 601.503 2087.56C600.003 2097.56 578.101 2107.22 562.003 2110.56C531.055 2117 491.607 2107.51 457.41 2080.72C457.475 2080.89 457.54 2081.05 457.605 2081.21C493.503 2109.68 529.439 2112.99 562.003 2116.72C666.503 2128.7 726.003 2083.06 746.003 2037.67C752.795 2050.37 761.832 2060.86 773.003 2070.15C779.6 2075.64 786.941 2080.7 795.003 2085.55C798.358 2078.4 837.178 2083.58 925.503 2097.56C928.329 2098.01 931.071 2098.54 933.731 2099.16C979.56 2109.74 1001.05 2144.23 1007.4 2173.16C1014.72 2170.77 1021.56 2168.39 1028 2165.96C1084.12 2144.86 1110.46 2120.41 1162 2053.56C1169.24 2044.55 1175.49 2035.57 1181.04 2026.56C1186.9 2017.07 1191.96 2007.56 1196.56 1997.96C1194.3 1997.65 1191.95 1997.19 1189.5 1996.56C1169.97 1991.58 1041.51 1908.94 1002.43 1872.52C996.497 1866.99 992.624 1862.53 991.503 1859.56C989.614 1854.56 989.48 1846.06 991.503 1837.56C993.527 1829.06 1001.5 1821.56 1010.12 1808.56C1018.4 1796.06 1032 1793.56 1040.5 1793.56C1040.65 1793.98 1040.86 1794.42 1041.13 1794.89C1048.84 1808.31 1104.09 1840.77 1150 1875.56C1179.5 1897.92 1201.5 1912.06 1220.5 1920.06C1223.68 1921.22 1225.98 1921.87 1227.61 1922.03C1227.74 1921.71 1227.87 1921.38 1228 1921.06C1228.97 1918.68 1229.91 1916.35 1230.82 1914.06C1247.98 1871.12 1255.66 1844.96 1268 1800.06C1268 1800.06 1247.93 1788.56 1244 1770.06C1234.88 1727.06 1242.9 1687.56 1241.5 1635.06C1240.56 1599.77 1233.5 1544.56 1233.5 1506.56C1233.5 1476.56 1247.5 1469.56 1261 1461.56C1261 1461.56 1295.41 1466.06 1298 1480.56C1303 1508.56 1315.73 1561.06 1318.5 1620.56C1322.17 1699.03 1310 1743.06 1303.5 1777.06C1298.5 1795.56 1268 1800.06 1268 1800.06C1255.66 1844.96 1247.98 1871.12 1230.82 1914.06C1241.41 1927.78 1244.22 1935.5 1243 1949.06C1239.21 1960.96 1234.11 1974.34 1230.82 1983.06C1222.7 1994.83 1211.86 2000.05 1196.56 1997.96C1191.96 2007.56 1186.9 2017.07 1181.04 2026.56C1181.99 2029.11 1182.99 2031.52 1184 2033.83C1281.66 2082.04 1283.5 2169.06 1239.5 2285.06C1201.76 2384.56 1144.66 2489.78 1075.5 2520.56C1002.5 2553.06 892.003 2515.56 863.157 2414.56C891.824 2470.73 979.815 2518.55 1050 2497.06Z" fill="url(#paint2_linear_356_35)"/>
<path d="M1261 1461.56C1261 1461.56 1295.41 1466.06 1298 1480.56C1303 1508.56 1315.73 1561.06 1318.5 1620.56C1322.17 1699.03 1310 1743.06 1303.5 1777.06C1298.5 1795.56 1268 1800.06 1268 1800.06M1261 1461.56C1247.5 1469.56 1233.5 1476.56 1233.5 1506.56C1233.5 1544.56 1240.56 1599.77 1241.5 1635.06C1242.9 1687.56 1234.88 1727.06 1244 1770.06C1247.93 1788.56 1268 1800.06 1268 1800.06M1261 1461.56C1178 1249.5 1133 1249.5 1043 1168V1141M1268 1800.06C1255.66 1844.96 1247.98 1871.12 1230.82 1914.06M1162 2053.56C1160.5 2065.06 1178 2047.32 1207 2073.06C1229.14 2093.86 1244.59 2130.43 1239 2167.06C1218.5 2301.56 1141.5 2469.05 1050 2497.06C979.815 2518.55 891.824 2470.73 863.157 2414.56M1162 2053.56C1169.24 2044.55 1175.49 2035.57 1181.04 2026.56M1162 2053.56C1162 2113.06 1134 2196.26 1082 2223.06C1001.5 2264.56 867.503 2214.56 815.003 2140.56M1162 2053.56C1110.46 2120.41 1084.12 2144.86 1028 2165.96C1019.85 2169.03 1011.08 2172.02 1001.5 2175.06C933.003 2196.84 905.003 2118.56 949.003 2078.56M179.503 1522.56C175.97 1550.06 166.003 1584.56 160.503 1632.06M151 1720.5C150.674 1723.53 150.87 1723.6 150.581 1726.56M151 1720.5C150.344 1724.43 150.581 1726.56 150.581 1726.56M151 1720.5C151.5 1717.5 152.027 1712.81 159.003 1707.56C184.003 1690.06 248.503 1691.06 303.003 1693.56C322.483 1694.46 332.503 1695.06 344.003 1704.56C358.531 1715.76 355.715 1718.61 353.444 1724.56M859.503 2406.56C860.584 2409.24 861.804 2411.91 863.157 2414.56M467.003 2112.06C451.503 2043.56 419.96 2037.06 403.503 1962.06C365.862 1790.51 343.003 1560.56 393.003 1546.06C362.003 1558.5 358.024 1590.94 355.003 1715.56C354.456 1718.65 353.937 1721.65 353.444 1724.56M815.003 2140.56C768.503 2253.56 716.503 2351.06 647.503 2372.56C602.503 2386.58 526.003 2372.56 481.003 2313.06C479.263 2310.76 477.646 2308.43 476.147 2306.06C492.003 2410.56 658.503 2441.56 737.003 2346.56C774.188 2301.56 807.848 2239.06 829.348 2176.06M815.003 2140.56C800.003 2124.06 790.003 2093.06 795.003 2085.55M815.003 2140.56C889.515 2224.65 946.503 2248.56 993.503 2220.08C1001.5 2215.23 1009.5 2202.06 1009.5 2191.56C1009.5 2159.56 988.003 2107.46 925.503 2097.56C837.178 2083.58 798.358 2078.4 795.003 2085.55M734.003 1879.06C736.003 1889.56 735.371 1907.63 734.003 1919.06C727.37 1974.52 731.719 2010.96 746.003 2037.67M1003 1522.56C1045.91 1515.58 1071.77 1605.16 1066.5 1685.06C1057.5 1821.56 969.503 1912.06 927.503 1997.56C912.557 2027.99 918.003 2057.56 933.503 2069.56C947.255 2080.21 977.003 2079.56 1004.5 2064.06C1032 2048.56 1046 2042.06 1057.5 2042.06M1230.82 1914.06C1229.91 1916.35 1228.97 1918.68 1228 1921.06C1212.85 1958.38 1201.97 1992.62 1181.04 2026.56M1230.82 1914.06C1241.41 1927.78 1244.22 1935.5 1243 1949.06C1239.21 1960.96 1234.11 1974.34 1230.82 1983.06C1221.5 1996.56 1208.61 2001.44 1189.5 1996.56C1167 1990.82 1000 1882.06 991.503 1859.56C989.614 1854.56 989.48 1846.06 991.503 1837.56C993.527 1829.06 1001.5 1821.56 1010.12 1808.56C1018.4 1796.06 1032 1793.56 1040.5 1793.56C1045 1806.06 1102.5 1839.56 1150 1875.56C1179.5 1897.92 1201.5 1912.06 1220.5 1920.06C1231.5 1924.06 1232 1922.06 1230.82 1914.06ZM1181.04 2026.56C1181.99 2029.11 1182.99 2031.52 1184 2033.83M1184 2033.83C1188.39 2043.87 1192.94 2051.93 1194 2060.06C1201 2113.56 1170.5 2230.99 1103 2267.06C1045 2298.06 920.003 2278.08 863.503 2220.08C822.512 2178.95 814.556 2148.9 806.503 2092.08C802.521 2089.93 798.687 2087.76 795.003 2085.55M1184 2033.83C1281.66 2082.04 1283.5 2169.06 1239.5 2285.06C1201.76 2384.56 1144.66 2489.78 1075.5 2520.56C1002.5 2553.06 892.003 2515.56 863.157 2414.56M431.003 2055.06C405.503 2024.56 390.799 1998.22 396.003 1971.56C398.503 1966.06 404.003 1960.56 412.003 1957.56C417.503 1956.06 443.565 1970.57 472.503 1983.06C510.503 1999.46 538.527 2008.77 554.003 2019.56C592.003 2046.06 604.47 2067.78 601.503 2087.56C600.003 2097.56 578.101 2107.22 562.003 2110.56C522.656 2118.74 469.569 2101.19 431.003 2055.06ZM431.003 2055.06C437.734 2086.79 450.286 2103.07 491.003 2130.56C548.503 2169.39 720.503 2186.56 773.003 2070.15M431.003 2055.06C475.503 2108.06 521.378 2112.06 562.003 2116.72C666.503 2128.7 726.003 2083.06 746.003 2037.67M773.003 2070.15C761.832 2060.86 752.795 2050.37 746.003 2037.67M773.003 2070.15C779.6 2075.64 786.941 2080.7 795.003 2085.55M150.581 1726.56C136.658 1869.42 164.806 1937.71 227.503 1969.06C298 2004.31 370.071 1910.1 357.5 1868.5C336.5 1799 342.938 1792.65 353.444 1725.5M150.581 1726.56C136.221 1716.76 129.831 1710.1 130.003 1690.06C130.111 1677.56 135.161 1655.06 139.503 1649.56C153.319 1632.06 166.046 1625.7 199.503 1618.56C241.503 1609.61 324.003 1615.56 362.003 1629.06C370.222 1631.98 367.245 1652.58 367 1674C366.794 1692 361 1716.5 353.444 1724.56" stroke="#120B38" stroke-width="10"/>
<path d="M1050 2497.06C1141.5 2469.05 1218.5 2301.56 1239 2167.06C1244.59 2130.43 1229.14 2093.86 1207 2073.06C1202.53 2069.1 1198.34 2066.16 1194.44 2063.99C1199.53 2119.11 1168.9 2231.84 1103 2267.06C1045 2298.06 920.003 2278.08 863.503 2220.08C847.981 2204.5 837.195 2190.52 829.348 2176.06C807.848 2239.06 774.188 2301.56 737.003 2346.56C658.503 2441.56 492.003 2410.56 476.147 2306.06C477.646 2308.43 479.263 2310.76 481.003 2313.06C526.003 2372.56 602.503 2386.58 647.503 2372.56C716.503 2351.06 768.503 2253.56 815.003 2140.56C800.003 2124.06 790.003 2093.06 795.003 2085.55C786.941 2080.7 779.6 2075.64 773.003 2070.15C720.503 2186.56 548.503 2169.39 491.003 2130.56C450.286 2103.07 437.734 2086.79 431.003 2055.06C405.503 2024.56 390.799 1998.22 396.003 1971.56C397.491 1968.29 400.042 1965.02 403.549 1962.27C403.534 1962.2 403.519 1962.13 403.503 1962.06C384.461 1875.28 369.202 1773.55 365.245 1692.32C362.948 1705.87 358.608 1719.05 353.444 1724.56C353.906 1721.83 354.391 1719.03 354.9 1716.14C353.927 1713.36 350.945 1709.91 344.003 1704.56C332.503 1695.06 322.483 1694.46 303.003 1693.56C248.503 1691.06 184.003 1690.06 159.003 1707.56C152.027 1712.81 151.5 1717.5 151 1720.5C150.674 1723.53 150.87 1723.6 150.581 1726.56C136.221 1716.76 129.831 1710.1 130.003 1690.06C130.111 1677.56 135.161 1655.06 139.503 1649.56C146.024 1641.3 152.302 1635.53 160.63 1630.97C169.95 1625.88 181.836 1622.33 199.503 1618.56C240.278 1609.87 319.222 1615.23 358.565 1627.9C362.351 1577.97 369.775 1558.08 388.004 1548.38C389.582 1547.35 391.248 1546.57 393.003 1546.06C391.252 1546.77 389.587 1547.53 388.004 1548.38C373.581 1557.77 366.448 1588.35 364.686 1631.08C369.49 1637.39 367.213 1655.39 367 1674C366.935 1679.7 366.309 1686.05 365.245 1692.32C369.202 1773.55 384.461 1875.28 403.503 1962.06C403.519 1962.13 403.534 1962.2 403.549 1962.27C405.935 1960.4 408.764 1958.78 412.003 1957.56C417.503 1956.06 443.565 1970.57 472.503 1983.06C510.503 1999.46 538.527 2008.77 554.003 2019.56C592.003 2046.06 604.47 2067.78 601.503 2087.56C600.003 2097.56 578.101 2107.22 562.003 2110.56C531.055 2117 491.607 2107.51 457.41 2080.72C457.475 2080.89 457.54 2081.05 457.605 2081.21C493.503 2109.68 529.439 2112.99 562.003 2116.72C666.503 2128.7 726.003 2083.06 746.003 2037.67C752.795 2050.37 761.832 2060.86 773.003 2070.15C779.6 2075.64 786.941 2080.7 795.003 2085.55C798.358 2078.4 837.178 2083.58 925.503 2097.56C928.329 2098.01 931.071 2098.54 933.731 2099.16C979.56 2109.74 1001.05 2144.23 1007.4 2173.16C1014.72 2170.77 1021.56 2168.39 1028 2165.96C1084.12 2144.86 1110.46 2120.41 1162 2053.56C1169.24 2044.55 1175.49 2035.57 1181.04 2026.56C1186.9 2017.07 1191.96 2007.56 1196.56 1997.96C1194.3 1997.65 1191.95 1997.19 1189.5 1996.56C1169.97 1991.58 1041.51 1908.94 1002.43 1872.52C996.497 1866.99 992.624 1862.53 991.503 1859.56C989.614 1854.56 989.48 1846.06 991.503 1837.56C993.527 1829.06 1001.5 1821.56 1010.12 1808.56C1018.4 1796.06 1032 1793.56 1040.5 1793.56C1040.65 1793.98 1040.86 1794.42 1041.13 1794.89C1048.84 1808.31 1104.09 1840.77 1150 1875.56C1179.5 1897.92 1201.5 1912.06 1220.5 1920.06C1223.68 1921.22 1225.98 1921.87 1227.61 1922.03C1227.74 1921.71 1227.87 1921.38 1228 1921.06C1228.97 1918.68 1229.91 1916.35 1230.82 1914.06C1247.98 1871.12 1255.66 1844.96 1268 1800.06C1268 1800.06 1247.93 1788.56 1244 1770.06C1234.88 1727.06 1242.9 1687.56 1241.5 1635.06C1240.56 1599.77 1233.5 1544.56 1233.5 1506.56C1233.5 1476.56 1247.5 1469.56 1261 1461.56C1261 1461.56 1295.41 1466.06 1298 1480.56C1303 1508.56 1315.73 1561.06 1318.5 1620.56C1322.17 1699.03 1310 1743.06 1303.5 1777.06C1298.5 1795.56 1268 1800.06 1268 1800.06C1255.66 1844.96 1247.98 1871.12 1230.82 1914.06C1241.41 1927.78 1244.22 1935.5 1243 1949.06C1239.21 1960.96 1234.11 1974.34 1230.82 1983.06C1222.7 1994.83 1211.86 2000.05 1196.56 1997.96C1191.96 2007.56 1186.9 2017.07 1181.04 2026.56C1181.99 2029.11 1182.99 2031.52 1184 2033.83C1281.66 2082.04 1283.5 2169.06 1239.5 2285.06C1201.76 2384.56 1144.66 2489.78 1075.5 2520.56C1002.5 2553.06 892.003 2515.56 863.157 2414.56C891.824 2470.73 979.815 2518.55 1050 2497.06Z" fill="url(#paint3_linear_356_35)"/>
<path d="M1261 1461.56C1261 1461.56 1295.41 1466.06 1298 1480.56C1303 1508.56 1315.73 1561.06 1318.5 1620.56C1322.17 1699.03 1310 1743.06 1303.5 1777.06C1298.5 1795.56 1268 1800.06 1268 1800.06M1261 1461.56C1247.5 1469.56 1233.5 1476.56 1233.5 1506.56C1233.5 1544.56 1240.56 1599.77 1241.5 1635.06C1242.9 1687.56 1234.88 1727.06 1244 1770.06C1247.93 1788.56 1268 1800.06 1268 1800.06M1261 1461.56C1178 1249.5 1133 1249.5 1043 1168V1141M1268 1800.06C1255.66 1844.96 1247.98 1871.12 1230.82 1914.06M1162 2053.56C1160.5 2065.06 1178 2047.32 1207 2073.06C1229.14 2093.86 1244.59 2130.43 1239 2167.06C1218.5 2301.56 1141.5 2469.05 1050 2497.06C979.815 2518.55 891.824 2470.73 863.157 2414.56M1162 2053.56C1169.24 2044.55 1175.49 2035.57 1181.04 2026.56M1162 2053.56C1162 2113.06 1134 2196.26 1082 2223.06C1001.5 2264.56 867.503 2214.56 815.003 2140.56M1162 2053.56C1110.46 2120.41 1084.12 2144.86 1028 2165.96C1019.85 2169.03 1011.08 2172.02 1001.5 2175.06C933.003 2196.84 905.003 2118.56 949.003 2078.56M179.503 1522.56C175.97 1550.06 166.003 1584.56 160.503 1632.06M151 1720.5C150.674 1723.53 150.87 1723.6 150.581 1726.56M151 1720.5C150.344 1724.43 150.581 1726.56 150.581 1726.56M151 1720.5C151.5 1717.5 152.027 1712.81 159.003 1707.56C184.003 1690.06 248.503 1691.06 303.003 1693.56C322.483 1694.46 332.503 1695.06 344.003 1704.56C358.531 1715.76 355.715 1718.61 353.444 1724.56M859.503 2406.56C860.584 2409.24 861.804 2411.91 863.157 2414.56M467.003 2112.06C451.503 2043.56 419.96 2037.06 403.503 1962.06C365.862 1790.51 343.003 1560.56 393.003 1546.06C362.003 1558.5 358.024 1590.94 355.003 1715.56C354.456 1718.65 353.937 1721.65 353.444 1724.56M815.003 2140.56C768.503 2253.56 716.503 2351.06 647.503 2372.56C602.503 2386.58 526.003 2372.56 481.003 2313.06C479.263 2310.76 477.646 2308.43 476.147 2306.06C492.003 2410.56 658.503 2441.56 737.003 2346.56C774.188 2301.56 807.848 2239.06 829.348 2176.06M815.003 2140.56C800.003 2124.06 790.003 2093.06 795.003 2085.55M815.003 2140.56C889.515 2224.65 946.503 2248.56 993.503 2220.08C1001.5 2215.23 1009.5 2202.06 1009.5 2191.56C1009.5 2159.56 988.003 2107.46 925.503 2097.56C837.178 2083.58 798.358 2078.4 795.003 2085.55M734.003 1879.06C736.003 1889.56 735.371 1907.63 734.003 1919.06C727.37 1974.52 731.719 2010.96 746.003 2037.67M1003 1522.56C1045.91 1515.58 1071.77 1605.16 1066.5 1685.06C1057.5 1821.56 969.503 1912.06 927.503 1997.56C912.557 2027.99 918.003 2057.56 933.503 2069.56C947.255 2080.21 977.003 2079.56 1004.5 2064.06C1032 2048.56 1046 2042.06 1057.5 2042.06M1230.82 1914.06C1229.91 1916.35 1228.97 1918.68 1228 1921.06C1212.85 1958.38 1201.97 1992.62 1181.04 2026.56M1230.82 1914.06C1241.41 1927.78 1244.22 1935.5 1243 1949.06C1239.21 1960.96 1234.11 1974.34 1230.82 1983.06C1221.5 1996.56 1208.61 2001.44 1189.5 1996.56C1167 1990.82 1000 1882.06 991.503 1859.56C989.614 1854.56 989.48 1846.06 991.503 1837.56C993.527 1829.06 1001.5 1821.56 1010.12 1808.56C1018.4 1796.06 1032 1793.56 1040.5 1793.56C1045 1806.06 1102.5 1839.56 1150 1875.56C1179.5 1897.92 1201.5 1912.06 1220.5 1920.06C1231.5 1924.06 1232 1922.06 1230.82 1914.06ZM1181.04 2026.56C1181.99 2029.11 1182.99 2031.52 1184 2033.83M1184 2033.83C1188.39 2043.87 1192.94 2051.93 1194 2060.06C1201 2113.56 1170.5 2230.99 1103 2267.06C1045 2298.06 920.003 2278.08 863.503 2220.08C822.512 2178.95 814.556 2148.9 806.503 2092.08C802.521 2089.93 798.687 2087.76 795.003 2085.55M1184 2033.83C1281.66 2082.04 1283.5 2169.06 1239.5 2285.06C1201.76 2384.56 1144.66 2489.78 1075.5 2520.56C1002.5 2553.06 892.003 2515.56 863.157 2414.56M431.003 2055.06C405.503 2024.56 390.799 1998.22 396.003 1971.56C398.503 1966.06 404.003 1960.56 412.003 1957.56C417.503 1956.06 443.565 1970.57 472.503 1983.06C510.503 1999.46 538.527 2008.77 554.003 2019.56C592.003 2046.06 604.47 2067.78 601.503 2087.56C600.003 2097.56 578.101 2107.22 562.003 2110.56C522.656 2118.74 469.569 2101.19 431.003 2055.06ZM431.003 2055.06C437.734 2086.79 450.286 2103.07 491.003 2130.56C548.503 2169.39 720.503 2186.56 773.003 2070.15M431.003 2055.06C475.503 2108.06 521.378 2112.06 562.003 2116.72C666.503 2128.7 726.003 2083.06 746.003 2037.67M773.003 2070.15C761.832 2060.86 752.795 2050.37 746.003 2037.67M773.003 2070.15C779.6 2075.64 786.941 2080.7 795.003 2085.55M150.581 1726.56C136.658 1869.42 164.806 1937.71 227.503 1969.06C298 2004.31 370.071 1910.1 357.5 1868.5C336.5 1799 342.938 1792.65 353.444 1725.5M150.581 1726.56C136.221 1716.76 129.831 1710.1 130.003 1690.06C130.111 1677.56 135.161 1655.06 139.503 1649.56C153.319 1632.06 166.046 1625.7 199.503 1618.56C241.503 1609.61 324.003 1615.56 362.003 1629.06C370.222 1631.98 367.245 1652.58 367 1674C366.794 1692 361 1716.5 353.444 1724.56" stroke="#120B38" stroke-width="10"/>
<path d="M1162.5 2055C1162.5 2055.72 1162.5 2056.44 1162.49 2057.17C1161.82 2116.5 1133.87 2198.02 1082.5 2224.5C1047.99 2242.29 1003.65 2243.27 960.107 2232.74C929.595 2235.16 895.044 2218.9 854.929 2182.38C839.74 2170.52 826.564 2157.3 816.348 2143.18C816.063 2142.79 815.78 2142.4 815.5 2142C815.753 2142.29 816.006 2142.57 816.259 2142.86C829.706 2157.98 842.581 2171.14 854.929 2182.38C884.646 2205.58 922.07 2223.55 960.107 2232.74C971.987 2231.8 983.255 2228.03 994 2221.51C1002 2216.67 1010 2203.5 1010 2193C1010 2186.21 1008.18 2180.4 1005.31 2175.44C1013.61 2172.76 1021.3 2170.11 1028.5 2167.4C1084.62 2146.29 1110.96 2121.85 1162.5 2055Z" fill="url(#paint4_linear_356_35)"/>
<path d="M1162.5 2055C1161 2066.5 1178.5 2048.76 1207.5 2074.5M1162.5 2055C1169.73 2045.99 1175.99 2037 1181.54 2028C1182.49 2030.54 1183.49 2032.96 1184.5 2035.27C1188.89 2045.3 1193.44 2053.37 1194.5 2061.5M1162.5 2055C1162.5 2114.5 1134.5 2197.69 1082.5 2224.5C1002 2266 868 2216 815.5 2142C890.011 2226.08 947 2250 994 2221.51C1002 2216.67 1010 2203.5 1010 2193C1010 2186.21 1008.18 2180.4 1005.31 2175.44M1162.5 2055C1110.96 2121.85 1084.62 2146.29 1028.5 2167.4C1021.3 2170.11 1013.61 2172.76 1005.31 2175.44M864 2221.51C823.009 2180.38 815.053 2150.33 807 2093.51M949.5 2080C907.255 2118.4 931.381 2192.09 994 2178.64C996.601 2178.08 999.268 2177.37 1002 2176.5C1003.11 2176.15 1004.22 2175.79 1005.31 2175.44" stroke="#120B38"/>
<path d="M488.611 1173.44C437.85 1163.87 413.297 1154.8 368.111 1139.94C327.11 1126.45 221.63 1076.1 166.11 1025.83C108.798 973.936 97.6163 936.529 69.1097 871.189C34.8103 792.572 18.1097 654.689 18.1097 654.689C18.1097 654.689 3.60856 616.689 5.10888 574.189C6.60919 531.689 13.6106 511.689 13.6106 511.689C16.6092 455.689 24.1094 391.189 47.6094 334.189C71.1094 277.189 112.109 221.689 142.609 191.189C173.11 160.689 249.609 97.6892 336.109 63.6892C422.609 29.6892 480.631 17.9013 560.609 9.68919C672.609 -1.8109 822.109 7.77431 931.109 39.1891C1045.61 72.1891 1115.61 102.79 1196.11 160.689C1273.17 216.115 1330.61 280.689 1369.11 354.689C1407.61 428.689 1411.61 561.189 1411.61 561.189C1411.61 561.189 1428.61 558.189 1445.61 575.189C1462.61 592.189 1465.61 633.189 1465.61 633.189C1465.61 633.189 1493.11 664.189 1469.11 771.689C1445.11 879.189 1398.61 899.189 1398.61 899.189C1398.61 899.189 1369.4 938.624 1349.11 943.189C1329.11 947.689 1317.11 938.189 1317.11 938.189C1290.11 976.189 1249.77 1030.98 1193.11 1067.69C1125.61 1118.19 1067.61 1138.69 1042.61 1146.69V1153.94H1041.61C1021.61 1232.44 637.611 1241.94 488.611 1173.44Z" fill="url(#paint5_linear_356_35)"/>
<path d="M488.611 1173.44C437.85 1163.87 413.297 1154.8 368.111 1139.94C327.11 1126.45 221.63 1076.1 166.11 1025.83C108.798 973.936 97.6163 936.529 69.1097 871.189C34.8103 792.572 18.1097 654.689 18.1097 654.689M488.611 1173.44C637.611 1241.94 1021.61 1232.44 1041.61 1153.94H1042.61V1146.69C1067.61 1138.69 1125.61 1118.19 1193.11 1067.69C1249.77 1030.98 1290.11 976.189 1317.11 938.189M488.611 1173.44C488.611 1173.44 680.837 1196.21 800.5 1153.94C973 1093 1020.61 829.189 1020.61 829.189M18.1097 654.689C18.1097 654.689 3.60856 616.689 5.10888 574.189C6.60919 531.689 13.6106 511.689 13.6106 511.689M18.1097 654.689C18.1097 654.689 14.4891 607.612 13.6106 579.689C12.732 551.767 13.6106 511.689 13.6106 511.689M13.6106 511.689C16.6092 455.689 24.1094 391.189 47.6094 334.189C71.1094 277.189 112.109 221.689 142.609 191.189C173.11 160.689 249.609 97.6892 336.109 63.6892C422.609 29.6892 480.631 17.9013 560.609 9.68919C672.609 -1.8109 822.109 7.77431 931.109 39.1891C1045.61 72.1891 1115.61 102.79 1196.11 160.689C1273.17 216.115 1330.61 280.689 1369.11 354.689C1407.61 428.689 1411.61 561.189 1411.61 561.189M13.6106 511.689C13.6106 511.689 39.0436 371.842 73.5 326C131 249.5 225.671 245.431 312 240C381.507 235.627 509 240 611.5 273.5C745.114 307.817 885.444 373.824 944 434C994.581 485.98 1015.17 510.5 1033.8 582.5C1050.95 648.755 1033.8 741 1033.8 741M1411.61 561.189C1411.61 561.189 1428.61 558.189 1445.61 575.189C1462.61 592.189 1465.61 633.189 1465.61 633.189C1465.61 633.189 1493.11 664.189 1469.11 771.689C1445.11 879.189 1398.61 899.189 1398.61 899.189C1398.61 899.189 1369.4 938.624 1349.11 943.189C1329.11 947.689 1317.11 938.189 1317.11 938.189M1411.61 561.189C1411.61 561.189 1400.11 561.689 1387.11 570.689C1355.33 592.689 1319.61 663.189 1305.11 723.689C1289.42 789.131 1282.65 833.384 1292.11 897.689C1296.15 925.189 1317.11 938.189 1317.11 938.189M1020.61 829.189C997.847 938.383 969.211 1017.8 885.109 1077.69C819.109 1124.69 647.991 1156.82 492.109 1126.69C344.995 1098.25 246.109 1040.19 159.109 947.689C106.828 892.102 63.3286 724.966 64.1094 583.689C64.7354 470.417 65.4423 402.652 108.609 344.189C172.109 258.189 405.109 259.189 547.109 293.689C668.159 323.099 831.609 378.689 923.609 443.689C967.233 474.51 993.662 514.626 1006.11 544.189C1029.81 600.471 1040.27 662.941 1033.8 741M1020.61 829.189C1027.19 797.61 1031.54 768.348 1033.8 741" stroke="#120B38" stroke-width="10"/>
<path d="M1401.72 896.515C1401.72 896.515 1369.62 938.639 1349.33 943.204C1329.33 947.704 1317.33 938.204 1317.33 938.204C1317.33 938.204 1296.38 925.204 1292.33 897.704C1282.88 833.399 1289.65 789.146 1305.33 723.704C1319.83 663.204 1355.56 592.704 1387.33 570.704C1400.33 561.704 1411.83 561.204 1411.83 561.204C1411.83 561.204 1428.83 558.204 1445.83 575.204C1462.83 592.204 1465.83 633.204 1465.83 633.204C1465.83 633.204 1493.33 664.204 1469.33 771.704C1445.33 879.204 1401.72 896.515 1401.72 896.515Z" fill="url(#paint6_linear_356_35)"/>
<path d="M1401.72 896.515C1401.72 896.515 1369.62 938.639 1349.33 943.204C1329.33 947.704 1317.33 938.204 1317.33 938.204C1317.33 938.204 1296.38 925.204 1292.33 897.704C1282.88 833.399 1289.65 789.146 1305.33 723.704C1319.83 663.204 1355.56 592.704 1387.33 570.704C1400.33 561.704 1411.83 561.204 1411.83 561.204C1411.83 561.204 1428.83 558.204 1445.83 575.204C1462.83 592.204 1465.83 633.204 1465.83 633.204C1465.83 633.204 1493.33 664.204 1469.33 771.704C1445.33 879.204 1401.72 896.515 1401.72 896.515Z" fill="url(#paint7_angular_356_35)"/>
<path d="M1465.83 633.204C1465.83 633.204 1493.33 664.204 1469.33 771.704C1445.33 879.204 1401.72 896.515 1401.72 896.515M1465.83 633.204C1465.83 633.204 1462.83 592.204 1445.83 575.204C1428.83 558.204 1411.83 561.204 1411.83 561.204C1411.83 561.204 1400.33 561.704 1387.33 570.704C1355.56 592.704 1319.83 663.204 1305.33 723.704C1289.65 789.146 1282.88 833.399 1292.33 897.704C1296.38 925.204 1317.33 938.204 1317.33 938.204C1317.33 938.204 1329.33 947.704 1349.33 943.204C1369.62 938.639 1401.72 896.515 1401.72 896.515M1465.83 633.204C1465.83 633.204 1450.64 603.015 1422.22 638.515C1393.81 674.015 1372.22 749.015 1372.22 749.015C1372.22 749.015 1338.72 861.015 1367.72 895.515C1378.19 907.964 1401.72 896.515 1401.72 896.515" stroke="#120B38"/>
<path d="M488.611 1172.85C437.85 1163.28 413.297 1154.21 368.111 1139.35C327.11 1125.86 221.63 1075.51 166.11 1025.24C108.798 973.348 97.6163 935.94 69.1097 870.601C34.8103 791.984 18.1097 654.101 18.1097 654.101C18.1097 654.101 3.60856 616.101 5.10888 573.601C6.60919 531.101 13.6106 511.101 13.6106 511.101C13.6106 511.101 39.0436 371.253 73.5 325.411C131 248.911 225.671 244.843 312 239.411C381.507 235.038 509 239.411 611.5 272.911C745.114 307.229 885.444 373.236 944 433.411C994.581 485.391 1015.17 509.911 1033.8 581.911C1050.95 648.167 1033.8 740.411 1033.8 740.411C1031.54 767.759 1027.19 797.021 1020.61 828.601C1020.61 828.601 1019.5 834.74 1017.01 845.362C1003.61 905.862 987.467 956.859 959.391 1000.25C925.258 1064.05 874.312 1127.27 800.5 1153.35C680.837 1195.62 488.611 1172.85 488.611 1172.85Z" fill="url(#paint8_linear_356_35)"/>
<path d="M486.01 1124.91C338.896 1096.47 240.01 1038.41 153.01 945.906C100.729 890.319 57.2296 723.183 58.0103 581.906C58.6363 468.634 59.3433 400.869 102.51 342.406C166.01 256.406 399.01 257.406 541.01 291.906C662.06 321.316 825.51 376.906 917.51 441.906C961.134 472.727 987.563 512.843 1000.01 542.406C1032.01 618.406 1039.88 705.689 1014.51 827.406C991.748 936.6 963.112 1016.02 879.01 1075.91C813.01 1122.91 641.892 1155.04 486.01 1124.91Z" fill="url(#paint9_radial_356_35)" stroke="url(#paint10_linear_356_35)" stroke-width="20"/>
<path d="M775.139 1461.31C778.139 1396.81 796.199 1320.25 779.139 1312.31C750.139 1298.81 678.639 1298.31 616.639 1284.81C587.131 1278.39 555.639 1272.31 527.139 1262.81C500.139 1253.81 479.159 1246.5 469.639 1249.81C453.075 1255.57 432 1265.5 432 1265.5C429.5 1270 425.5 1300 421 1355.5C418.5 1402.5 409.5 1500.5 422 1508.5C434.428 1514.71 500.442 1527.29 555 1540.5C617.55 1555.65 692.987 1579.07 720.139 1578.31C736.139 1574.31 752.139 1565.81 762.139 1561.31C772.139 1556.81 773.786 1521.49 775.139 1461.31Z" fill="url(#paint11_linear_356_35)" stroke="#0F0B29" stroke-width="4"/>
<mask id="path-20-inside-1_356_35" fill="white">
<path d="M428.146 1267.81C430.437 1251.98 482.59 1267.72 545.646 1280.31C629.54 1297.07 719.627 1313.95 740.146 1325.81C749.627 1331.29 743.448 1386.89 740.146 1444.31C735.832 1519.31 733.364 1580.63 717.147 1579.14C680.147 1575.14 449.232 1519.88 422.147 1510.31C407.515 1505.14 413.156 1447.89 416.646 1387.31C419.615 1335.76 422.646 1305.81 428.146 1267.81Z"/>
</mask>
<path d="M428.146 1267.81C430.437 1251.98 482.59 1267.72 545.646 1280.31C629.54 1297.07 719.627 1313.95 740.146 1325.81C749.627 1331.29 743.448 1386.89 740.146 1444.31C735.832 1519.31 733.364 1580.63 717.147 1579.14C680.147 1575.14 449.232 1519.88 422.147 1510.31C407.515 1505.14 413.156 1447.89 416.646 1387.31C419.615 1335.76 422.646 1305.81 428.146 1267.81Z" fill="url(#paint12_linear_356_35)"/>
<path d="M428.146 1267.81L432.104 1268.38L428.146 1267.81ZM740.146 1325.81L738.143 1329.27L740.146 1325.81ZM717.147 1579.14L716.717 1583.11C716.738 1583.11 716.759 1583.12 716.78 1583.12L717.147 1579.14ZM422.147 1510.31L423.479 1506.54L422.147 1510.31ZM416.646 1387.31L412.652 1387.08L416.646 1387.31ZM545.646 1280.31L546.429 1276.39L545.646 1280.31ZM740.146 1444.31L736.152 1444.08L740.146 1444.31ZM717.577 1575.16C699.391 1573.19 632.727 1558.46 566.847 1542.92C500.983 1527.38 436.763 1511.23 423.479 1506.54L420.815 1514.08C434.617 1518.96 499.396 1535.22 565.01 1550.7C630.609 1566.18 697.903 1581.08 716.717 1583.11L717.577 1575.16ZM423.479 1506.54C422.851 1506.32 421.987 1505.71 421.043 1504.05C420.09 1502.37 419.233 1499.92 418.539 1496.61C417.152 1489.99 416.592 1480.79 416.601 1469.59C416.618 1447.21 418.886 1417.97 420.639 1387.54L412.652 1387.08C410.916 1417.23 408.618 1446.9 408.601 1469.59C408.592 1480.92 409.147 1490.79 410.709 1498.25C411.489 1501.98 412.564 1505.32 414.09 1508C415.625 1510.7 417.785 1513.01 420.815 1514.08L423.479 1506.54ZM420.639 1387.54C423.603 1336.09 426.623 1306.25 432.104 1268.38L424.187 1267.24C418.668 1305.37 415.627 1335.44 412.652 1387.08L420.639 1387.54ZM432.104 1268.38C432.201 1267.72 432.476 1267.22 433.323 1266.72C434.347 1266.1 436.129 1265.55 438.961 1265.3C444.609 1264.79 452.877 1265.59 463.452 1267.35C484.622 1270.87 513.026 1277.88 544.862 1284.23L546.429 1276.39C515.21 1270.15 486.01 1262.99 464.766 1259.46C454.134 1257.69 444.994 1256.73 438.248 1257.33C434.883 1257.63 431.722 1258.35 429.209 1259.86C426.519 1261.47 424.663 1263.95 424.187 1267.24L432.104 1268.38ZM544.862 1284.23C586.85 1292.62 630.28 1301.02 665.805 1308.8C683.565 1312.7 699.288 1316.42 711.825 1319.91C724.499 1323.43 733.511 1326.6 738.143 1329.27L742.148 1322.35C736.521 1319.1 726.577 1315.7 713.967 1312.2C701.22 1308.66 685.331 1304.89 667.518 1300.99C631.896 1293.18 588.336 1284.76 546.429 1276.39L544.862 1284.23ZM738.143 1329.27C738.043 1329.22 738.575 1329.52 739.215 1331.41C739.808 1333.16 740.293 1335.66 740.631 1338.97C741.304 1345.57 741.327 1354.6 740.942 1365.44C740.171 1387.17 737.814 1415.19 736.152 1444.08L744.139 1444.54C745.78 1416.01 748.163 1387.53 748.937 1365.73C749.324 1354.81 749.321 1345.33 748.589 1338.16C748.225 1334.59 747.662 1331.4 746.791 1328.84C745.967 1326.41 744.619 1323.78 742.148 1322.35L738.143 1329.27ZM736.152 1444.08C733.99 1481.68 732.303 1515.56 729.143 1539.89C727.558 1552.1 725.641 1561.57 723.242 1567.81C722.037 1570.94 720.83 1572.94 719.741 1574.06C718.758 1575.08 718.077 1575.2 717.513 1575.15L716.78 1583.12C720.271 1583.44 723.215 1581.98 725.487 1579.63C727.654 1577.39 729.334 1574.26 730.709 1570.68C733.469 1563.5 735.478 1553.24 737.077 1540.92C740.284 1516.22 741.988 1481.95 744.139 1444.54L736.152 1444.08Z" fill="#0F0B29" mask="url(#path-20-inside-1_356_35)"/>
<path d="M438.247 1485.24L449.997 1296.26L713.062 1352.91L703.269 1545.83L438.247 1485.24Z" fill="url(#paint13_linear_356_35)" stroke="#0F0B29" stroke-width="4" stroke-linejoin="round"/>
<defs>
<linearGradient id="paint0_linear_356_35" x1="689.5" y1="1176.5" x2="1124.5" y2="2274.5" gradientUnits="userSpaceOnUse">
<stop stop-color="#100F4D"/>
<stop offset="1" stop-color="#1801A1"/>
</linearGradient>
<linearGradient id="paint1_linear_356_35" x1="517.503" y1="436.063" x2="1207.5" y2="1315.56" gradientUnits="userSpaceOnUse">
<stop stop-color="#0D1877"/>
<stop offset="1" stop-color="#120B38"/>
</linearGradient>
<linearGradient id="paint2_linear_356_35" x1="517.503" y1="436.063" x2="1207.5" y2="1315.56" gradientUnits="userSpaceOnUse">
<stop stop-color="#0D1877"/>
<stop offset="1" stop-color="#120B38"/>
</linearGradient>
<linearGradient id="paint3_linear_356_35" x1="517.503" y1="436.063" x2="1207.5" y2="1315.56" gradientUnits="userSpaceOnUse">
<stop stop-color="#120B38"/>
<stop offset="1" stop-color="#120B38"/>
</linearGradient>
<linearGradient id="paint4_linear_356_35" x1="952.5" y1="1832.5" x2="1291.5" y2="2240" gradientUnits="userSpaceOnUse">
<stop stop-color="#0D1877"/>
<stop offset="1" stop-color="#1801A1"/>
</linearGradient>
<linearGradient id="paint5_linear_356_35" x1="517.5" y1="437" x2="1207.5" y2="1316.5" gradientUnits="userSpaceOnUse">
<stop stop-color="#0D1877"/>
<stop offset="1" stop-color="#120B38"/>
</linearGradient>
<linearGradient id="paint6_linear_356_35" x1="517.725" y1="437.015" x2="1207.72" y2="1316.51" gradientUnits="userSpaceOnUse">
<stop stop-color="#0D1877"/>
<stop offset="1" stop-color="#120B38"/>
</linearGradient>
<radialGradient id="paint7_angular_356_35" cx="0" cy="0" r="1" gradientUnits="userSpaceOnUse" gradientTransform="translate(1373 760) rotate(-27.8476) scale(119.883 141.972)">
<stop stop-color="#0F1154"/>
<stop offset="0.133937" stop-color="#101051"/>
<stop offset="0.280393" stop-color="#110F4D"/>
<stop offset="0.30412" stop-color="#120E4A"/>
<stop offset="0.342208" stop-color="#130D48"/>
<stop offset="0.344504" stop-color="#130C46"/>
<stop offset="0.373206" stop-color="#140C44"/>
<stop offset="0.750516" stop-color="#101153"/>
<stop offset="0.851278" stop-color="#101153"/>
<stop offset="0.861558" stop-color="#101153"/>
<stop offset="0.910101" stop-color="#101153"/>
</radialGradient>
<linearGradient id="paint8_linear_356_35" x1="994" y1="1480" x2="533.5" y2="324" gradientUnits="userSpaceOnUse">
<stop stop-color="#0D1877"/>
<stop offset="1" stop-color="#120B38"/>
</linearGradient>
<radialGradient id="paint9_radial_356_35" cx="0" cy="0" r="1" gradientUnits="userSpaceOnUse" gradientTransform="translate(390 620.5) rotate(49.2394) scale(1755.25 1967.82)">
<stop stop-color="#0F0B29"/>
<stop offset="0.566244" stop-color="#261F50"/>
<stop offset="0.814798" stop-color="#3C3275"/>
<stop offset="0.956522" stop-color="#6052B3"/>
<stop offset="1" stop-color="#8774F6"/>
</radialGradient>
<linearGradient id="paint10_linear_356_35" x1="966" y1="1200.5" x2="57.9999" y2="429" gradientUnits="userSpaceOnUse">
<stop stop-color="#D9D9D9"/>
<stop offset="0.983363" stop-color="#333333"/>
</linearGradient>
<linearGradient id="paint11_linear_356_35" x1="1221" y1="1209.1" x2="527.227" y2="1565.62" gradientUnits="userSpaceOnUse">
<stop stop-color="#1814DF"/>
<stop stop-color="#13C65E"/>
<stop offset="0.391916" stop-color="#141296"/>
<stop offset="1" stop-color="#101153"/>
</linearGradient>
<linearGradient id="paint12_linear_356_35" x1="1131.31" y1="1222.62" x2="494.54" y2="1523.68" gradientUnits="userSpaceOnUse">
<stop stop-color="#1814DF"/>
<stop stop-color="#13C65E"/>
<stop offset="0.391916" stop-color="#141296"/>
<stop offset="1" stop-color="#101153"/>
</linearGradient>
<linearGradient id="paint13_linear_356_35" x1="1039.05" y1="1262.98" x2="514.347" y2="1523.01" gradientUnits="userSpaceOnUse">
<stop stop-color="#1814DF"/>
<stop stop-color="#13C65E"/>
<stop offset="0.391916" stop-color="#141296"/>
<stop offset="1" stop-color="#101153"/>
</linearGradient>
</defs>
</svg>
